<?xml version="1.0" encoding="UTF-8"?>
<svg version="1.1" xmlns="http://www.w3.org/2000/svg" width="428" height="398">
<path d="M0 0 C141.24 0 282.48 0 428 0 C428 131.34 428 262.68 428 398 C286.76 398 145.52 398 0 398 C0 266.66 0 135.32 0 0 Z " fill="#F7FDFE" transform="translate(0,0)"/>
<path d="M0 0 C0.60972656 0.48210938 1.21945312 0.96421875 1.84765625 1.4609375 C2.87890625 1.9765625 3.91015625 2.4921875 4.97265625 3.0234375 C13.91189581 8.04331285 20.49095083 16.3073178 24.11328125 25.765625 C26.83170088 35.62528983 27.1638756 44.810786 26.78808594 55.03076172 C26.74216309 56.58174561 26.74216309 56.58174561 26.6953125 58.1640625 C26.63355835 59.55093262 26.63355835 59.55093262 26.57055664 60.96582031 C26.91182377 64.03872783 27.62156108 65.32706015 29.84765625 67.4609375 C31.98942967 68.05132045 31.98942967 68.05132045 34.3828125 67.96484375 C35.27548828 67.98353516 36.16816406 68.00222656 37.08789062 68.02148438 C38.48491211 68.02245117 38.48491211 68.02245117 39.91015625 68.0234375 C48.24141498 68.06500472 56.61289078 68.25995301 63.50390625 73.46875 C64.11234375 74.16742188 64.72078125 74.86609375 65.34765625 75.5859375 C67.78380787 78.43457536 67.78380787 78.43457536 70.84765625 80.4609375 C71.54977519 82.11298206 72.21737038 83.78017519 72.84765625 85.4609375 C73.17765625 85.7909375 73.50765625 86.1209375 73.84765625 86.4609375 C75.90397625 96.28557748 76.44165842 106.55897011 71.26171875 115.4140625 C66.02958599 122.98764694 59.20116163 127.13948079 50.36016738 129.03668416 C46.29455789 129.72318795 42.2916422 129.74672718 38.17689514 129.73509216 C36.77936899 129.74294718 36.77936899 129.74294718 35.35360998 129.75096089 C32.25400621 129.76587696 29.15456873 129.76666418 26.05493164 129.76733398 C23.82354964 129.77496091 21.59217027 129.78338932 19.36079407 129.79255676 C13.31538871 129.81445113 7.27003392 129.82329343 1.2245934 129.82838321 C-2.55506088 129.83203161 -6.33470202 129.83827408 -10.11435127 129.8453846 C-20.59487398 129.86482575 -31.07538882 129.88134905 -41.55593014 129.88426113 C-42.22521379 129.8844487 -42.89449745 129.88463627 -43.58406243 129.88482952 C-44.94061855 129.88519575 -46.29717468 129.88555945 -47.6537308 129.88592064 C-48.32704993 129.88610345 -49.00036906 129.88628626 -49.6940918 129.88647461 C-50.70531312 129.88674543 -50.70531312 129.88674543 -51.73696316 129.88702173 C-62.66461996 129.89056472 -73.59207988 129.91760254 -84.51966839 129.9549725 C-95.75911104 129.99309935 -106.99845927 130.01197825 -118.23797804 130.01272064 C-124.54057659 130.01351309 -130.84292064 130.02223805 -137.14546013 130.05071831 C-143.0725775 130.07690537 -148.9992294 130.07910014 -154.92637825 130.06306267 C-157.09753561 130.06124895 -159.2687198 130.06793183 -161.43981934 130.08388138 C-182.8735142 130.23170342 -182.8735142 130.23170342 -190.15234375 124.4609375 C-193.91009875 120.7031825 -195.9367889 116.84472055 -196.41796875 111.5234375 C-196.4128125 110.5128125 -196.40765625 109.5021875 -196.40234375 108.4609375 C-196.4075 107.4503125 -196.41265625 106.4396875 -196.41796875 105.3984375 C-195.89278741 99.59054969 -193.27095222 95.49097374 -189.15234375 91.4609375 C-183.54187094 87.04418231 -178.49828867 86.93467335 -171.45703125 86.734375 C-168.04148694 86.45176495 -164.67400895 85.9826027 -162.15234375 83.4609375 C-162.11141438 81.12796317 -162.10992652 78.79388525 -162.15234375 76.4609375 C-162.81234375 76.4609375 -163.47234375 76.4609375 -164.15234375 76.4609375 C-168.57318576 66.51404297 -166.3779688 54.28535573 -162.94042969 44.28955078 C-160.82560062 39.38246598 -157.10898933 35.91363855 -153.15234375 32.4609375 C-152.61996094 31.94144531 -152.08757812 31.42195313 -151.5390625 30.88671875 C-145.10993523 25.35467901 -133.00819989 22.61462378 -124.65625 23.07421875 C-112.34418759 24.97576973 -100.69510818 27.85032752 -92.15234375 37.4609375 C-91.04800455 38.78513999 -91.04800455 38.78513999 -88.27734375 38.6484375 C-84.98663617 38.71437263 -84.98663617 38.71437263 -82.15234375 36.4609375 C-81.28097126 34.24981806 -81.28097126 34.24981806 -80.71484375 31.7109375 C-77.83339472 21.47228611 -69.78340771 13.6299955 -62.15234375 6.4609375 C-60.49161526 5.77961299 -58.82457675 5.11351623 -57.15234375 4.4609375 C-56.40855469 3.83574219 -55.66476562 3.21054687 -54.8984375 2.56640625 C-51.90359328 0.27021701 -49.18332447 -0.91894464 -45.65234375 -2.2265625 C-44.54890625 -2.64292969 -43.44546875 -3.05929688 -42.30859375 -3.48828125 C-29.80015634 -7.65260014 -11.10908117 -7.9436987 0 0 Z " fill="#F7FDFE" transform="translate(332.15234375,52.5390625)"/>
<path d="M0 0 C1.45913806 -0.00418012 2.91827286 -0.00966134 4.37740171 -0.01631981 C8.35999456 -0.03070358 12.34237922 -0.02655204 16.32498312 -0.019153 C20.63040676 -0.01440619 24.93578634 -0.02694431 29.24119568 -0.03717041 C37.66427398 -0.05433247 46.0872776 -0.05520405 54.51036884 -0.04995751 C61.35690982 -0.04591079 68.20342878 -0.04736531 75.04996872 -0.05270576 C76.02558234 -0.05345419 77.00119596 -0.05420261 78.00637364 -0.05497371 C79.98848619 -0.05650523 81.97059873 -0.05804357 83.95271127 -0.05958868 C102.52278364 -0.07330359 121.09281383 -0.06788246 139.66288523 -0.05640347 C156.64694597 -0.04646565 173.63089784 -0.05942303 190.61494179 -0.08333766 C208.06612633 -0.10772453 225.51726016 -0.11733794 242.96846139 -0.11068493 C252.76134113 -0.10719264 262.5541371 -0.10942585 272.34700394 -0.12693596 C280.68057997 -0.14165248 289.01401319 -0.14230022 297.34758641 -0.12486505 C301.59787656 -0.11634938 305.84791152 -0.11421944 310.0981884 -0.1295166 C313.99167741 -0.14335615 317.8846924 -0.13861033 321.77815394 -0.11927737 C323.18376194 -0.11551487 324.58940784 -0.1184466 325.99498208 -0.12888902 C334.11955918 -0.18493968 340.20024495 0.44013304 347.33651733 4.38768005 C348.68425026 4.9857278 350.03815499 5.57014256 351.39901733 6.13768005 C352.36839233 6.55018005 353.33776733 6.96268005 354.33651733 7.38768005 C354.33651733 8.04768005 354.33651733 8.70768005 354.33651733 9.38768005 C354.99651733 9.38768005 355.65651733 9.38768005 356.33651733 9.38768005 C363.33892449 15.87266796 367.97507835 23.55290443 368.48368835 33.17066956 C368.49353256 34.18088165 368.50337677 35.19109375 368.51351929 36.23191833 C368.52635452 37.38306122 368.53918976 38.5342041 368.55241394 39.7202301 C368.56349434 41.57042252 368.56349434 41.57042252 368.57479858 43.45799255 C368.58287033 44.7311734 368.59094208 46.00435425 368.59925842 47.31611633 C368.61307264 50.00423299 368.62409884 52.6922281 368.63168335 55.38035583 C368.64279526 58.82504657 368.67727156 62.26909975 368.71685505 65.71356392 C368.7492341 69.00331023 368.75378935 72.29311117 368.76229858 75.58299255 C368.77980667 76.82050262 368.79731476 78.0580127 368.81535339 79.33302307 C368.81096504 81.05028091 368.81096504 81.05028091 368.80648804 82.80223083 C368.8152874 84.3151622 368.8152874 84.3151622 368.82426453 85.85865784 C368.33651733 88.38768005 368.33651733 88.38768005 366.50245667 90.24848938 C363.44744055 91.8552961 361.59318064 91.30804142 358.33651733 90.38768005 C355.71241264 87.76357536 356.08574256 86.62111251 356.08114624 82.96336365 C356.07418732 81.82813263 356.06722839 80.69290161 356.06005859 79.52326965 C356.0610556 78.29000946 356.06205261 77.05674927 356.06307983 75.78611755 C356.04278127 73.18585291 356.02193031 70.58559253 356.00057983 67.9853363 C355.97588638 63.87742872 355.96068383 59.76958332 355.95565796 55.66160583 C355.94964702 51.70288004 355.91230025 47.74467881 355.87557983 43.78611755 C355.88314804 41.95444534 355.88314804 41.95444534 355.89086914 40.08576965 C355.79751272 31.96205976 354.99881929 26.04998201 349.02401733 20.07518005 C342.31540635 15.86279641 336.15054479 14.26556342 328.3271904 14.25625229 C327.11404718 14.25241114 325.90090396 14.24857 324.65099883 14.24461246 C323.30811415 14.24539264 321.96522953 14.24627141 320.62234497 14.24723816 C319.19313739 14.24465363 317.76393053 14.24164022 316.33472466 14.23823476 C312.40704719 14.23017191 308.47938799 14.22837559 304.55170321 14.22763729 C300.31571892 14.22578551 296.07974408 14.21823757 291.84376526 14.21150208 C282.58135705 14.19792361 273.31895318 14.19189488 264.05653667 14.18749142 C258.27283067 14.18472834 252.48912633 14.18049089 246.70542145 14.17598724 C230.69115682 14.16379554 214.67689353 14.15349582 198.66262436 14.15011215 C197.63780292 14.14989259 196.61298148 14.14967302 195.55710484 14.1494468 C194.01620386 14.14911938 194.01620386 14.14911938 192.44417357 14.14878535 C190.36255248 14.14834189 188.28093139 14.14789532 186.1993103 14.14744568 C184.65047777 14.14711353 184.65047777 14.14711353 183.07035568 14.14677468 C166.33812979 14.1428264 149.60594745 14.12537101 132.87373838 14.10208616 C115.69395636 14.07837145 98.5141962 14.06591026 81.33439755 14.06474423 C71.68898983 14.06382758 62.04363886 14.05807751 52.39824677 14.03992462 C44.18532571 14.02452209 35.97247894 14.01940411 27.75954619 14.02766272 C23.57008922 14.03156859 19.38078185 14.03064272 15.19134331 14.01660538 C11.35320731 14.00386284 7.51533326 14.00506697 3.67719761 14.01719609 C2.29159467 14.01915247 0.90597316 14.01607734 -0.47960368 14.00735173 C-10.57130976 13.94784297 -19.79323578 14.70572592 -27.79636931 21.41340321 C-34.44087132 28.43926826 -34.23986597 38.9138278 -34.1824646 47.97280884 C-34.18835186 49.31462144 -34.19598513 50.65642731 -34.20519567 51.99822122 C-34.22532574 55.65619699 -34.22093651 59.31378207 -34.21228814 62.97178757 C-34.2073211 66.92736678 -34.22545565 70.88285061 -34.2407074 74.83839417 C-34.26396898 81.68195004 -34.27277019 88.52540011 -34.27159882 95.36899376 C-34.26992638 105.26351323 -34.29029684 115.15789204 -34.31595412 125.05237392 C-34.35699228 141.10757653 -34.38033714 157.16275376 -34.39248657 173.21800232 C-34.40432287 188.80917295 -34.42453467 204.40029584 -34.45596313 219.99143982 C-34.45789924 220.95334943 -34.45983534 221.91525905 -34.46183011 222.90631744 C-34.471595 227.73219576 -34.48152405 232.55807373 -34.49153471 237.38395154 C-34.57429987 277.3851717 -34.62832153 317.38639138 -34.66348267 357.38768005 C-34.00348267 357.38768005 -33.34348267 357.38768005 -32.66348267 357.38768005 C-32.42565063 358.27519958 -32.42565063 358.27519958 -32.18301392 359.1806488 C-30.24953172 365.72885093 -27.82161465 369.28225873 -22.03848267 373.13768005 C-18.1119231 375.20429035 -15.14903728 375.51402264 -10.7697258 375.51910782 C-9.53146412 375.52294896 -8.29320243 375.52679011 -7.01741767 375.53074765 C-5.63582844 375.52996736 -4.25423926 375.52908857 -2.87265015 375.52812195 C-1.4107449 375.53070487 0.05115964 375.53371782 1.51306319 375.53712535 C5.54033309 375.54520724 9.56758518 375.54698558 13.59486222 375.54772282 C17.9344571 375.54957131 22.27404268 375.55711763 26.6136322 375.56385803 C36.10742217 375.57745043 45.60120791 375.58346751 55.09500599 375.58786869 C61.02106885 375.59062964 66.94713008 375.59486673 72.87319183 375.59937286 C89.27512128 375.61156683 105.67704942 375.62186582 122.07898331 375.62524796 C123.129119 375.62546752 124.1792547 375.62568709 125.26121269 375.62591331 C126.31388671 375.62613158 127.36656073 375.62634986 128.45113397 375.62657475 C130.58431514 375.62701822 132.71749632 375.62746479 134.85067749 375.62791443 C136.43788084 375.62824657 136.43788084 375.62824657 138.0571489 375.62858543 C155.20471028 375.63253387 172.35222917 375.64998872 189.49977413 375.67327395 C207.09758772 375.69697807 224.69537998 375.70944938 242.29320979 375.71061587 C252.17668009 375.71153318 262.06009504 375.71729935 271.94355011 375.73543549 C280.35932815 375.7508238 288.77503374 375.75596445 297.19082317 375.74769738 C301.4853309 375.74378634 305.77969267 375.74474255 310.07418251 375.75875473 C314.00604648 375.77146649 317.93765441 375.77032023 321.86951789 375.75816402 C323.29148388 375.75620228 324.71346783 375.75930747 326.13540855 375.76800838 C337.49092185 375.98202437 337.49092185 375.98202437 347.22714233 370.7743988 C352.80360583 363.80381943 355.45790098 357.99955579 355.46781921 349.04244995 C355.47383148 347.08441437 355.47383148 347.08441437 355.47996521 345.08682251 C355.47949015 343.64210508 355.47895404 342.19738767 355.47836304 340.75267029 C355.48139537 339.22987263 355.48491704 337.70707588 355.4888916 336.1842804 C355.49677337 332.90654843 355.50192271 329.62882732 355.50518227 326.35108757 C355.51109403 321.17054794 355.52763445 315.99007693 355.54652405 310.80957031 C355.55286107 309.0361052 355.55918669 307.26264004 355.56550121 305.48917484 C355.56866702 304.60115716 355.57183284 303.71313948 355.57509458 302.79821217 C355.61718632 290.73795889 355.6501682 278.67773828 355.66244507 266.61741638 C355.67081301 258.48064971 355.69325303 250.34405359 355.73180073 242.20737225 C355.75159783 237.90083833 355.7639538 233.59455957 355.75896645 229.28797722 C355.75433585 225.24047511 355.76803739 221.19345765 355.79597855 217.14605331 C355.8029162 215.65893583 355.80298934 214.17176851 355.79577827 212.68465233 C355.78694333 210.6584074 355.80487038 208.63209788 355.82426453 206.60592651 C355.82784706 204.90333254 355.82784706 204.90333254 355.83150196 203.16634274 C356.33651733 200.38768005 356.33651733 200.38768005 358.20837688 198.49122715 C360.33651733 197.38768005 360.33651733 197.38768005 362.89901733 197.51268005 C365.61653227 198.48819824 366.618481 199.08697513 368.33651733 201.38768005 C368.71404076 204.18361092 368.71404076 204.18361092 368.71746826 207.64820862 C368.72592773 208.96034836 368.73438721 210.2724881 368.74310303 211.62438965 C368.73726969 213.08210878 368.73112516 214.53982669 368.72470093 215.99754333 C368.72876541 217.53016535 368.7341066 219.06278443 368.7406311 220.59539795 C368.75433214 224.76311983 368.74899281 228.93061941 368.73949385 233.09834528 C368.73190342 237.4623643 368.73894191 241.82636415 368.74365234 246.19038391 C368.74911517 253.52604081 368.74190811 260.86160721 368.72763062 268.19725037 C368.71133954 276.66493905 368.71656462 285.13241063 368.73310983 293.60009396 C368.74675332 300.87498835 368.74862929 308.14981759 368.74079382 315.42472064 C368.73612831 319.76719837 368.73546073 324.10957434 368.74540329 328.45204544 C368.75411107 332.54132087 368.74798191 336.63031878 368.73072052 340.71956444 C368.72677436 342.21546024 368.72785745 343.71137964 368.73450851 345.20726585 C368.7987721 361.13786077 365.12777845 370.83016672 353.96932983 382.2509613 C351.1520996 384.53734845 348.82082258 385.4683517 345.33651733 386.38768005 C345.33651733 387.04768005 345.33651733 387.70768005 345.33651733 388.38768005 C342.63706536 389.73740604 340.54867411 389.51434546 337.52454281 389.51631451 C336.27905538 389.51953895 335.03356796 389.5227634 333.75033849 389.52608556 C332.35539422 389.52461418 330.96045005 389.52304644 329.56550598 389.52139282 C328.09351498 389.5232595 326.62152447 389.52555962 325.14953476 389.52825814 C321.08965993 389.53440069 317.02980561 389.53423967 312.96992719 389.53306377 C308.5968763 389.53286037 304.2238321 389.53837281 299.8507843 389.54312134 C291.2760952 389.55144277 282.70141298 389.55417688 274.12672018 389.55473372 C267.15649616 389.55520834 260.18627441 389.55726039 253.2160511 389.56043434 C233.46262204 389.56924635 213.70919842 389.57385307 193.95576739 389.57310387 C192.88991829 389.57306391 191.82406919 389.57302396 190.72592163 389.57298279 C189.65877334 389.57294191 188.59162505 389.57290103 187.49213893 389.57285891 C170.20684505 389.57245267 152.92157299 389.58201508 135.63628542 389.59612115 C117.89611241 389.61048435 100.15595004 389.61739131 82.41577107 389.61652738 C72.45287059 389.6161953 62.48999295 389.61894675 52.5270977 389.62970543 C44.04146102 389.63880986 35.55585753 389.64098629 27.07021808 389.63419601 C22.74107135 389.63093001 18.41198828 389.63087689 14.0828476 389.63954926 C10.11696116 389.64741208 6.15118889 389.64598502 2.18530525 389.63726512 C0.75318157 389.63572961 -0.67895062 389.63754823 -2.11106426 389.6431252 C-15.26895959 389.69095667 -25.91878872 388.4891706 -35.96817017 379.2743988 C-40.32876486 374.65025168 -42.99859877 370.48712401 -44.66348267 364.38768005 C-44.84116613 363.76320213 -45.0188496 363.1387242 -45.20191741 362.4953227 C-46.93170377 355.69897134 -46.94289135 349.08589215 -46.91744995 342.10362244 C-46.91975766 340.76995693 -46.92293626 339.43629269 -46.92690444 338.10263109 C-46.93521849 334.45759744 -46.93114267 330.81266913 -46.924932 327.1676352 C-46.92039458 323.22892704 -46.92739766 319.29023659 -46.93289185 315.35153198 C-46.94177373 307.64340736 -46.9398692 299.93532175 -46.93406656 292.22719562 C-46.92954534 285.96127495 -46.92893916 279.69536519 -46.9311142 273.42944336 C-46.93142066 272.53681959 -46.93172713 271.64419583 -46.93204288 270.72452286 C-46.93268235 268.91103724 -46.93333078 267.09755163 -46.93398806 265.28406602 C-46.93968783 248.28870919 -46.93313901 231.29337395 -46.92238733 214.29802066 C-46.91345214 199.72291584 -46.91500428 185.14784289 -46.92422485 170.57273865 C-46.93493372 153.6371831 -46.93913854 136.70164647 -46.93300033 119.76608801 C-46.93236324 117.95936426 -46.9317345 116.1526405 -46.9311142 114.34591675 C-46.93080565 113.45703043 -46.93049709 112.56814411 -46.93017919 111.65232185 C-46.92845411 105.39569203 -46.93136334 99.13907424 -46.9360733 92.88244629 C-46.94168898 85.25519261 -46.94015123 77.62798009 -46.92951182 70.00073111 C-46.92426436 66.11101875 -46.92218255 62.22137495 -46.92881012 58.33166313 C-46.93479089 54.76758887 -46.93145954 51.2036464 -46.92085502 47.639584 C-46.91757991 45.74684551 -46.92407291 43.8540978 -46.93096948 41.96136904 C-46.86747233 28.11256126 -43.53354238 19.48510172 -34.03848267 9.32518005 C-31.40217655 6.79004144 -29.45008276 5.50242551 -25.66348267 5.38768005 C-25.66348267 4.72768005 -25.66348267 4.06768005 -25.66348267 3.38768005 C-17.05136788 0.46060836 -9.03443884 -0.04245636 0 0 Z " fill="#67E0E6" transform="translate(52.663482666015625,4.6123199462890625)"/>
<path d="M0 0 C0.76570313 0.26425781 1.53140625 0.52851562 2.3203125 0.80078125 C5.7223917 2.32328608 8.19184456 4.53841643 10.875 7.0625 C11.6649939 7.80004517 11.6649939 7.80004517 12.47094727 8.55249023 C24.41135299 19.90900406 31.32744686 32.8271729 32.12011719 49.53125 C32.24332817 55.02524781 32.15962741 60.50763474 32 66 C32.83402344 65.97679688 33.66804688 65.95359375 34.52734375 65.9296875 C48.21029125 65.71025879 56.02822838 68.37286709 67.1875 76.25 C76.61475902 85.46776438 81.05054222 95.95082372 81.3125 109.0625 C81.33853922 120.88286067 77.21325272 132.28401521 69.1171875 141.03515625 C55.36366096 153.73694252 38.43066157 153.43952375 20.7590332 153.37231445 C18.51573518 153.37474555 16.27243825 153.37846795 14.02914429 153.38337708 C7.96533597 153.39274445 1.90169024 153.38339643 -4.16210532 153.37004495 C-10.52000167 153.35868989 -16.87789049 153.36284098 -23.23579407 153.36479187 C-33.90730785 153.36567337 -44.57875161 153.35469444 -55.25024414 153.33618164 C-66.21380536 153.31716737 -77.17729261 153.31009863 -88.14086914 153.31567383 C-101.38182257 153.32238729 -114.62273521 153.31907467 -127.86368752 153.30657005 C-132.91091328 153.30193269 -137.95811898 153.30104646 -143.0053463 153.3031559 C-148.94880985 153.30504263 -154.89217888 153.29690521 -160.83562088 153.2810955 C-163.01363674 153.27686173 -165.19166221 153.27599598 -167.3696804 153.27878571 C-170.3481343 153.28202132 -173.32630816 153.27289101 -176.30473328 153.26069641 C-177.16135943 153.26447573 -178.01798558 153.26825506 -178.90057009 153.27214891 C-191.00987105 153.18476666 -200.8006608 150.1022718 -209.6875 141.703125 C-216.44757387 133.80114676 -217.73450048 124.57499895 -217.359375 114.45703125 C-216.32083205 104.46669957 -212.05730944 97.02552121 -204.30859375 90.61328125 C-197.52542328 85.87309613 -190.60653824 84.65652854 -182.5 84.5625 C-181.80519531 84.55226807 -181.11039062 84.54203613 -180.39453125 84.53149414 C-177.5211841 84.58194707 -175.47558968 84.6794315 -173.05859375 86.30859375 C-171.23484744 89.22255003 -171.58524473 91.6819578 -172 95 C-174.34936046 97.48051408 -175.71279229 97.97245953 -179.13671875 98.30078125 C-180.89435547 98.30658203 -180.89435547 98.30658203 -182.6875 98.3125 C-189.57319249 98.65678462 -193.97457542 100.26301038 -199 105 C-203.45708761 110.18435132 -203.35845 115.32045897 -203.26953125 121.95703125 C-202.88000313 126.35474723 -201.84554734 129.59480207 -199 133 C-192.62649434 138.12958202 -187.10982916 139.14803272 -179.04403687 139.13371277 C-177.65314218 139.1371111 -177.65314218 139.1371111 -176.23414862 139.14057809 C-173.1136061 139.14692994 -169.99310688 139.14608795 -166.87255859 139.14526367 C-164.64044132 139.14825451 -162.40832457 139.15165686 -160.1762085 139.15544128 C-154.10159265 139.1642952 -148.02699088 139.16662004 -141.95236921 139.16725707 C-136.88299587 139.1682055 -131.81362583 139.17188321 -126.74425375 139.17542917 C-115.46529896 139.18311382 -104.18635083 139.18609731 -92.90739422 139.18542381 C-92.23041994 139.18538386 -91.55344567 139.1853439 -90.85595703 139.18530273 C-89.83925273 139.18524141 -89.83925273 139.18524141 -88.80200894 139.18517885 C-77.82810306 139.18477279 -66.85423156 139.19433144 -55.88033561 139.2084411 C-44.60832176 139.22281941 -33.33632413 139.22952747 -22.06429923 139.22884732 C-15.7376989 139.2285924 -9.41113742 139.23144043 -3.08454514 139.24202538 C2.86945495 139.25171419 8.82337911 139.25178009 14.7773819 139.24450874 C16.96023291 139.24346374 19.14308867 139.24582077 21.32593155 139.2518692 C24.31142159 139.25960428 27.29665045 139.2549341 30.28213501 139.24723816 C31.57044643 139.2549535 31.57044643 139.2549535 32.88478434 139.26282471 C40.05810245 139.22211227 47.43606283 138.64213412 53.4375 134.375 C56.83526012 132 56.83526012 132 59 132 C59.27585937 131.43023437 59.55171875 130.86046875 59.8359375 130.2734375 C61 128 61 128 62.2890625 125.9140625 C66.53870952 118.63250357 66.60211322 112.27905683 66 104 C65.94328125 103.21496094 65.8865625 102.42992187 65.828125 101.62109375 C65.49286097 98.53279628 65.24826701 97.24826701 63 95 C63 93.68 63 92.36 63 91 C62.41734375 90.7421875 61.8346875 90.484375 61.234375 90.21875 C58.12330909 88.52180496 55.89390652 86.13849554 53.390625 83.65625 C46.46768738 78.85996642 37.4866532 79.66939262 29.42578125 79.69726562 C25.33441659 79.60628119 22.78698934 79.53785366 19.359375 77.1953125 C17.24444383 72.22400878 17.76236623 67.51491744 18 62.1875 C18.35551012 45.64792858 16.21144465 32.62000595 4.5625 20.1875 C1.29206334 17.06800657 -1.98979626 15.07671265 -6 13 C-7.093125 12.319375 -8.18625 11.63875 -9.3125 10.9375 C-21.50898901 4.18539558 -36.41560064 4.17308962 -49.6875 7.6875 C-55.91493832 9.73417856 -61.34142128 12.34142128 -66 17 C-67.16208984 17.43119141 -67.16208984 17.43119141 -68.34765625 17.87109375 C-75.95541162 21.10915163 -82.28764458 29.7801919 -86 37 C-86.86264402 39.59928264 -87.57815606 42.16114725 -88.1640625 44.8359375 C-89.23057596 47.59691159 -90.47684415 48.51053929 -93 50 C-96.79137976 50.56467358 -98.41290246 50.39139836 -101.625 48.25 C-104 46 -104 46 -105.75 44 C-113.35440489 37.24052899 -126.4944885 34.22746901 -136.48828125 34.65234375 C-145.97091735 35.96487036 -155.02918384 38.09313628 -162 45 C-162.62390625 45.598125 -163.2478125 46.19625 -163.890625 46.8125 C-167.28673015 50.35129864 -169.45906344 53.67040194 -171.203125 58.265625 C-171.54504883 59.15540039 -171.88697266 60.04517578 -172.23925781 60.96191406 C-172.49030273 61.63448242 -172.74134766 62.30705078 -173 63 C-174.69974976 62.98259766 -174.69974976 62.98259766 -176.43383789 62.96484375 C-180.71171419 62.93186323 -184.98805755 62.95247331 -189.26586914 62.98779297 C-191.10342715 62.99581374 -192.94110679 62.99004904 -194.77856445 62.96923828 C-209.43031974 62.81732377 -219.85096376 64.97140138 -231.28540039 74.765625 C-234 77 -234 77 -236 77 C-236.25910156 77.57492188 -236.51820313 78.14984375 -236.78515625 78.7421875 C-238.50349704 81.93575977 -240.86753663 84.47255813 -243.24609375 87.1953125 C-247.89305374 94.62630866 -248.46106169 102.55596175 -248.3125 111.125 C-248.31572266 112.06214844 -248.31894531 112.99929687 -248.32226562 113.96484375 C-248.25974271 122.09282294 -246.69840792 128.79429114 -243.5 136.3125 C-243.0771875 137.31925781 -242.654375 138.32601562 -242.21875 139.36328125 C-241.0164152 142.14265579 -241.0164152 142.14265579 -239 145 C-238.65059541 147.79523674 -238.62766213 149.3648354 -240.0625 151.8125 C-243.13629218 153.69643714 -245.48385658 153.43180709 -249 153 C-255.66635574 148.00023319 -257.72759605 139.62947538 -260 132 C-260.23074219 131.24074219 -260.46148437 130.48148438 -260.69921875 129.69921875 C-264.5222778 114.43409646 -263.54852036 94.49091427 -255.77075195 80.77172852 C-249.13624756 69.8901216 -240.66661949 61.44143673 -229 56 C-227.906875 55.46375 -226.81375 54.9275 -225.6875 54.375 C-214.30949797 50.13235517 -203.77306241 49.58761551 -191.71875 49.82421875 C-185.56395884 50.0965316 -185.56395884 50.0965316 -180.36181641 47.46948242 C-179.13496879 45.36836807 -179.13496879 45.36836807 -178 42 C-176.3603279 40.63360658 -174.69672386 39.29486821 -173 38 C-171.68834743 35.88339573 -171.68834743 35.88339573 -171 34 C-169.68 34 -168.36 34 -167 34 C-167 32.68 -167 31.36 -167 30 C-151.13219898 21.2601728 -134.07558485 17.67940528 -116.2824707 22.49365234 C-109.51734532 24.59510751 -103.53388115 27.52677941 -98 32 C-97.72929687 31.2678125 -97.45859375 30.535625 -97.1796875 29.78125 C-96.04361461 27.10282649 -94.75676753 24.90115015 -93.125 22.5 C-92.63257813 21.7678125 -92.14015625 21.035625 -91.6328125 20.28125 C-81.79443225 6.53576181 -66.34250074 -3.86998165 -49.6875 -7.3125 C-32.26165223 -9.68039224 -15.22497651 -9.51561032 0 0 Z " fill="#64DFE6" transform="translate(340,42)"/>
<path d="M0 0 C117.48 0.33 234.96 0.66 356 1 C356 1.33 356 1.66 356 2 C355.23816406 2.06058594 354.47632813 2.12117188 353.69140625 2.18359375 C352.65886719 2.26738281 351.62632812 2.35117187 350.5625 2.4375 C348.90154297 2.57091797 348.90154297 2.57091797 347.20703125 2.70703125 C344.6954589 2.93646843 342.24147331 3.25248846 339.75 3.625 C335.88225167 4.06168856 332.25126783 3.84446253 328.375 3.53125 C317.53058262 2.76197043 306.67420196 2.85009908 295.80810547 2.86962891 C292.24312123 2.87501038 288.67826178 2.86964292 285.11328125 2.86328125 C282.80989556 2.8639418 280.50650995 2.86522247 278.203125 2.8671875 C277.15594299 2.86516327 276.10876099 2.86313904 275.02984619 2.86105347 C268.89001196 2.88024313 262.84405274 3.18724032 256.73156738 3.77294922 C252.23854148 4.1464143 247.75573113 4.14514485 243.25 4.125 C242.36957031 4.12886719 241.48914063 4.13273437 240.58203125 4.13671875 C239.28072266 4.13478516 239.28072266 4.13478516 237.953125 4.1328125 C237.19161133 4.13168457 236.43009766 4.13055664 235.64550781 4.12939453 C233 4 233 4 229.39630127 3.50474548 C224.92742344 2.93756735 220.51420767 2.82729652 216.01367188 2.79467773 C215.15418945 2.78477814 214.29470703 2.77487854 213.40917969 2.76467896 C210.59573021 2.73333636 207.78226391 2.7084154 204.96875 2.68359375 C203.00719793 2.66300064 201.04565006 2.64200358 199.08410645 2.62062073 C193.94184795 2.56564339 188.79955103 2.51612759 183.65722656 2.46777344 C178.40165826 2.4173798 173.14614519 2.36178732 167.890625 2.30664062 C157.59379727 2.1993571 147.29692142 2.09784695 137 2 C136.67 5.3 136.34 8.6 136 12 C211.57 12 287.14 12 365 12 C363 14 363 14 360.45609653 14.24839699 C359.36933694 14.24763755 358.28257736 14.24687811 357.16288567 14.24609566 C355.2863291 14.2520688 355.2863291 14.2520688 353.37186229 14.25816262 C351.9707163 14.25245579 350.56957104 14.24656458 349.16842651 14.24050903 C347.69002112 14.24138043 346.21161603 14.24313019 344.73321259 14.24568737 C340.65592868 14.25017788 336.57874904 14.24213395 332.50147843 14.23213124 C328.1101978 14.22352346 323.71892341 14.226415 319.32763672 14.22793579 C311.71454339 14.22898634 304.10148424 14.22269202 296.48839951 14.21146011 C285.48105536 14.19523105 274.4737278 14.18999977 263.46637298 14.18748413 C245.60924578 14.18310294 227.75213682 14.16978237 209.89501953 14.15087891 C192.54476005 14.13253105 175.19450551 14.1183692 157.84423828 14.10986328 C156.24100983 14.10907511 156.24100983 14.10907511 154.60539292 14.10827102 C149.24363671 14.10566101 143.88188046 14.10313358 138.5201242 14.10064721 C94.0134035 14.07990153 49.50670269 14.04466449 5 14 C5 13.67 5 13.34 5 13 C6.82035767 12.96241577 6.82035767 12.96241577 8.67749023 12.92407227 C13.26431384 12.82850807 17.85103711 12.72867795 22.43774414 12.62768555 C24.40712098 12.58489043 26.37652194 12.54318829 28.34594727 12.50268555 C40.58523192 12.25010413 52.78554228 11.83074214 65 11 C65.66 8.69 66.32 6.38 67 4 C64.9656764 1.9656764 60.97053586 2.76947882 58.1875 2.75 C57.09985352 2.7190625 57.09985352 2.7190625 55.99023438 2.6875 C52.62634494 2.66287867 50.40218198 2.75731476 47.48828125 4.515625 C46.99714844 5.00546875 46.50601563 5.4953125 46 6 C46 5.34 46 4.68 46 4 C43.03 4 40.06 4 37 4 C37 3.34 37 2.68 37 2 C35.42532959 2.01571045 35.42532959 2.01571045 33.81884766 2.03173828 C29.93134967 2.06788453 26.04386659 2.09088078 22.15625 2.10986328 C20.47230534 2.11993317 18.78837821 2.13358988 17.10449219 2.15087891 C14.68680499 2.17508426 12.26934857 2.18647296 9.8515625 2.1953125 C9.0963028 2.20563507 8.34104309 2.21595764 7.56289673 2.22659302 C5.7070602 2.22699318 3.8518072 2.12222716 2 2 C1.34 1.34 0.68 0.68 0 0 Z " fill="#7EE3E9" transform="translate(33,380)"/>
<path d="M0 0 C1.875 -0.36328125 1.875 -0.36328125 4 -0.3125 C4.70125 -0.30863281 5.4025 -0.30476563 6.125 -0.30078125 C8 0 8 0 10 2 C10.22705078 3.97119141 10.22705078 3.97119141 10.1953125 6.3515625 C10.19031738 7.11807129 10.18532227 7.88458008 10.18017578 8.67431641 C10.15286377 10.13490479 10.15286377 10.13490479 10.125 11.625 C10.08375 14.71875 10.0425 17.8125 10 21 C16.93 21 23.86 21 31 21 C30.92104494 15.21111367 30.92104494 15.21111367 30.81982422 9.42260742 C30.8148291 8.69920166 30.80983398 7.9757959 30.8046875 7.23046875 C30.78897705 6.12288208 30.78897705 6.12288208 30.77294922 4.99291992 C31 3 31 3 33 0 C37.34586828 -0.39507893 39.32003497 -0.45331002 43 2 C43.3742218 4.04931641 43.3742218 4.04931641 43.37231445 6.6015625 C43.38165764 8.03314697 43.38165764 8.03314697 43.39118958 9.49365234 C43.38197983 10.52699707 43.37277008 11.5603418 43.36328125 12.625 C43.36402901 14.21175537 43.36402901 14.21175537 43.36479187 15.83056641 C43.36244845 18.07000606 43.35270429 20.3094482 43.33618164 22.54882812 C43.31259665 25.98591547 43.31561785 29.42222738 43.32226562 32.859375 C43.31668895 35.03125465 43.30957914 37.20313101 43.30078125 39.375 C43.30214836 40.92501709 43.30214836 40.92501709 43.30354309 42.50634766 C43.29401108 43.4607373 43.28447906 44.41512695 43.2746582 45.3984375 C43.27005081 46.24067871 43.26544342 47.08291992 43.26069641 47.95068359 C43 50 43 50 41 52 C38.8359375 52.1953125 38.8359375 52.1953125 36.375 52.125 C35.55773437 52.10695313 34.74046875 52.08890625 33.8984375 52.0703125 C33.27195313 52.04710937 32.64546875 52.02390625 32 52 C31.09761253 49.29283758 30.88148698 47.76223232 30.90234375 44.98828125 C30.90484131 44.30548096 30.90733887 43.62268066 30.90991211 42.91918945 C30.91901611 42.05898193 30.92812012 41.19877441 30.9375 40.3125 C30.958125 37.569375 30.97875 34.82625 31 32 C20.605 32.495 20.605 32.495 10 33 C10.07904591 38.50483671 10.07904591 38.50483671 10.18017578 44.00927734 C10.19473738 46.00703478 10.09956726 48.00467217 10 50 C8 52 8 52 6.125 52.265625 C5.42375 52.26046875 4.7225 52.2553125 4 52.25 C3.29875 52.25515625 2.5975 52.2603125 1.875 52.265625 C0 52 0 52 -2 50 C-2.25396729 47.99537659 -2.25396729 47.99537659 -2.25878906 45.50610352 C-2.26509338 44.57496231 -2.27139771 43.64382111 -2.27789307 42.6844635 C-2.2738446 41.67612961 -2.26979614 40.66779572 -2.265625 39.62890625 C-2.26753845 38.59563705 -2.2694519 37.56236786 -2.27142334 36.49778748 C-2.27278609 34.30963905 -2.26908343 32.12148256 -2.26074219 29.93334961 C-2.25005491 26.57973073 -2.26062903 23.22664889 -2.2734375 19.87304688 C-2.27211571 17.74999881 -2.26955291 15.62695109 -2.265625 13.50390625 C-2.26967346 12.49759659 -2.27372192 11.49128693 -2.27789307 10.45448303 C-2.27158875 9.52018967 -2.26528442 8.5858963 -2.25878906 7.62329102 C-2.25719788 6.80103531 -2.25560669 5.9787796 -2.25396729 5.13160706 C-2 3 -2 3 0 0 Z " fill="#5EDEE5" transform="translate(37,284)"/>
<path d="M0 0 C2 2 2 2 2.25 4.9375 C2 8 2 8 0 11 C-4.05445642 11.43132515 -5.54970958 11.30019361 -9 9 C-14.28970607 8.12791332 -19.70400115 7.59709632 -24.41015625 10.47265625 C-27.70007031 13.87065783 -29.40662715 16.86123678 -29.625 21.625 C-29.25728006 25.65604316 -28.40090652 28.66971031 -26 32 C-22.64889905 34.77959536 -19.76173864 35.90645315 -15.4375 36.4375 C-11.69588268 35.96129416 -9.33327894 34.70209988 -6 33 C-2.75450966 32.61817761 -0.90843874 32.42465546 1.875 34.1875 C3.48241237 36.77721993 3.64260608 38.00117165 3 41 C-2.67554062 46.81396844 -8.24369458 49.14959413 -16.3125 49.5 C-23.5041983 49.31793169 -29.13741776 47.37738102 -34.5859375 42.61328125 C-40.36532478 36.22092866 -42.67211967 29.3928787 -42.5 20.9375 C-42.51546875 20.17373047 -42.5309375 19.40996094 -42.546875 18.62304688 C-42.50153329 11.9974899 -40.54728477 7.94546847 -36.17578125 2.890625 C-25.25819516 -6.72234389 -12.34731173 -7.9738021 0 0 Z " fill="#65E0E8" transform="translate(234,288)"/>
<path d="M0 0 C0.76121658 -0.0033284 1.52243317 -0.0066568 2.30671692 -0.01008606 C3.92330317 -0.01516079 5.53989994 -0.01749422 7.15649414 -0.01733398 C9.61687872 -0.01950683 12.07680505 -0.03761829 14.53710938 -0.05664062 C16.10807139 -0.05957726 17.67903553 -0.06156025 19.25 -0.0625 C19.98147751 -0.06968552 20.71295502 -0.07687103 21.46659851 -0.08427429 C25.84366245 -0.06495474 29.38834291 0.55559074 33.45703125 2.16796875 C32.99767216 7.16258738 31.69149205 9.61740513 28.39453125 13.35546875 C23.76994683 18.7642537 19.56875344 24.36318448 15.45703125 30.16796875 C14.79058594 31.10640625 14.12414062 32.04484375 13.4375 33.01171875 C10.21186982 37.44604619 10.21186982 37.44604619 7.45703125 42.16796875 C16.03703125 42.16796875 24.61703125 42.16796875 33.45703125 42.16796875 C33.45703125 44.47796875 33.45703125 46.78796875 33.45703125 49.16796875 C31.45703125 51.16796875 31.45703125 51.16796875 29.62203979 51.40847778 C28.88035553 51.40403656 28.13867126 51.39959534 27.37451172 51.39501953 C26.11343094 51.39479294 26.11343094 51.39479294 24.82687378 51.39456177 C23.91849762 51.3842392 23.01012146 51.37391663 22.07421875 51.36328125 C21.14481476 51.36045135 20.21541077 51.35762146 19.25784302 51.35470581 C16.28244275 51.34348944 13.3073409 51.31838235 10.33203125 51.29296875 C8.31771267 51.28294083 6.30338939 51.27381465 4.2890625 51.265625 C-0.65506331 51.24354536 -5.5989654 51.20900568 -10.54296875 51.16796875 C-11.14892578 49.35913086 -11.14892578 49.35913086 -11.54296875 47.16796875 C-10.25563402 44.84542707 -8.97950427 42.85212027 -7.41796875 40.73046875 C-7.02609375 40.17037109 -6.63421875 39.61027344 -6.23046875 39.03320312 C-3.62693116 35.38739967 -0.72576303 32.33042568 2.45703125 29.16796875 C3.82818615 27.38390926 5.16230957 25.57074856 6.45703125 23.73046875 C12.19869792 15.71380208 12.19869792 15.71380208 15.45703125 12.16796875 C16.11703125 12.16796875 16.77703125 12.16796875 17.45703125 12.16796875 C17.45703125 11.17796875 17.45703125 10.18796875 17.45703125 9.16796875 C16.74047363 9.17844238 16.02391602 9.18891602 15.28564453 9.19970703 C12.0511422 9.24118174 8.81669572 9.26726767 5.58203125 9.29296875 C4.45410156 9.30972656 3.32617188 9.32648438 2.1640625 9.34375 C0.54951172 9.35341797 0.54951172 9.35341797 -1.09765625 9.36328125 C-2.59014893 9.3789917 -2.59014893 9.3789917 -4.11279297 9.39501953 C-6.54296875 9.16796875 -6.54296875 9.16796875 -8.54296875 7.16796875 C-8.73046875 4.10546875 -8.73046875 4.10546875 -8.54296875 1.16796875 C-6.56634644 -0.80865356 -2.70346664 0.00405675 0 0 Z " fill="#5EDAE2" transform="translate(359.54296875,284.83203125)"/>
<path d="M0 0 C2 2 2 2 2.25 4.9375 C2 8 2 8 0 11 C-4.05445642 11.43132515 -5.54970958 11.30019361 -9 9 C-13.43416795 8.2689615 -17.57619247 8.18215323 -22 9 C-25.03682256 11.25423782 -27.02981432 13.79038842 -29 17 C-29.66 16.34 -30.32 15.68 -31 15 C-33.06874034 14.3574765 -33.06874034 14.3574765 -35 14 C-35.12375 12.88625 -35.2475 11.7725 -35.375 10.625 C-35.6465813 6.96896323 -35.6465813 6.96896323 -38 5 C-26.88148551 -6.05792313 -13.63232099 -8.80365152 0 0 Z " fill="#76E0EA" transform="translate(234,288)"/>
<path d="M0 0 C117.48 0.33 234.96 0.66 356 1 C356 1.33 356 1.66 356 2 C355.23816406 2.06058594 354.47632813 2.12117188 353.69140625 2.18359375 C352.65886719 2.26738281 351.62632812 2.35117187 350.5625 2.4375 C348.90154297 2.57091797 348.90154297 2.57091797 347.20703125 2.70703125 C344.6954589 2.93646843 342.24147331 3.25248846 339.75 3.625 C335.88225167 4.06168856 332.25126783 3.84446253 328.375 3.53125 C317.53058262 2.76197043 306.67420196 2.85009908 295.80810547 2.86962891 C292.24312123 2.87501038 288.67826178 2.86964292 285.11328125 2.86328125 C282.80989556 2.8639418 280.50650995 2.86522247 278.203125 2.8671875 C277.15594299 2.86516327 276.10876099 2.86313904 275.02984619 2.86105347 C268.89001196 2.88024313 262.84405274 3.18724032 256.73156738 3.77294922 C252.23854148 4.1464143 247.75573113 4.14514485 243.25 4.125 C242.36957031 4.12886719 241.48914063 4.13273437 240.58203125 4.13671875 C239.28072266 4.13478516 239.28072266 4.13478516 237.953125 4.1328125 C237.19161133 4.13168457 236.43009766 4.13055664 235.64550781 4.12939453 C233 4 233 4 229.30833054 3.50069046 C225.33285194 2.99603624 221.43199695 2.86889403 217.42120361 2.85955811 C216.70256881 2.85658698 215.98393402 2.85361586 215.24352241 2.8505547 C212.85927622 2.84195128 210.47508073 2.84036668 208.09082031 2.83886719 C206.37201329 2.83423347 204.65320729 2.82920807 202.93440247 2.82382202 C198.28392986 2.81075851 193.63347165 2.80426617 188.98298359 2.79981136 C186.07694876 2.79687381 183.17091781 2.79276796 180.26488495 2.78830719 C171.16983887 2.77465479 162.07480172 2.76497433 152.9797461 2.7611053 C142.48359569 2.75661513 131.98757489 2.73901349 121.4914639 2.7101047 C113.37155936 2.68851603 105.2516914 2.6784027 97.13175845 2.67706418 C92.28368303 2.67601511 87.43572983 2.67008434 82.58768463 2.65224457 C78.03383659 2.63581021 73.48020335 2.63358568 68.92633629 2.64238358 C67.25416935 2.64315616 65.58199105 2.63878221 63.90985298 2.62892532 C61.62993104 2.61627153 59.35077776 2.62204588 57.07086182 2.63250732 C55.79442936 2.63104076 54.5179969 2.6295742 53.20288467 2.6280632 C49.81572965 3.0213985 48.44098114 3.68598079 46 6 C46 5.34 46 4.68 46 4 C43.03 4 40.06 4 37 4 C37 3.34 37 2.68 37 2 C35.42532959 2.01571045 35.42532959 2.01571045 33.81884766 2.03173828 C29.93134967 2.06788453 26.04386659 2.09088078 22.15625 2.10986328 C20.47230534 2.11993317 18.78837821 2.13358988 17.10449219 2.15087891 C14.68680499 2.17508426 12.26934857 2.18647296 9.8515625 2.1953125 C9.0963028 2.20563507 8.34104309 2.21595764 7.56289673 2.22659302 C5.7070602 2.22699318 3.8518072 2.12222716 2 2 C1.34 1.34 0.68 0.68 0 0 Z " fill="#8FE3E7" transform="translate(33,380)"/>
<path d="M0 0 C0 2.31 0 4.62 0 7 C0.66 7 1.32 7 2 7 C1.67 8.32 1.34 9.64 1 11 C4.49114033 11.80564777 7.47773299 12.03652472 11 11.5625 C17.3130769 10.71786879 23.64364383 10.91862417 30 11 C30.125 14.375 30.125 14.375 30 18 C28 20 28 20 26.16500854 20.24050903 C25.42332428 20.23606781 24.68164001 20.23162659 23.91748047 20.22705078 C22.65639969 20.22682419 22.65639969 20.22682419 21.36984253 20.22659302 C20.46146637 20.21627045 19.55309021 20.20594788 18.6171875 20.1953125 C17.68778351 20.1924826 16.75837952 20.18965271 15.80081177 20.18673706 C12.8254115 20.17552069 9.85030965 20.1504136 6.875 20.125 C4.86068142 20.11497208 2.84635814 20.1058459 0.83203125 20.09765625 C-4.11209456 20.07557661 -9.05599665 20.04103693 -14 20 C-14.61035156 18.19555664 -14.61035156 18.19555664 -15 16 C-13.66887247 13.64107709 -12.34914594 11.59804824 -10.75 9.4375 C-10.34136719 8.86064453 -9.93273437 8.28378906 -9.51171875 7.68945312 C-3.99517914 0 -3.99517914 0 0 0 Z " fill="#65DFE6" transform="translate(363,316)"/>
<path d="M0 0 C1.23589369 -0.00322445 2.47178738 -0.00644889 3.74513239 -0.00977105 C5.11366564 -0.00829997 6.4821988 -0.00673225 7.85073185 -0.00507832 C9.3068261 -0.00694664 10.76291985 -0.00924743 12.2190128 -0.01194364 C16.22089365 -0.01806524 20.22275363 -0.01792762 24.2246381 -0.01674926 C28.54031867 -0.01654535 32.85599252 -0.02206306 37.17166996 -0.02680683 C45.6266291 -0.03511561 54.08158126 -0.03786176 62.53654414 -0.03841921 C69.40756123 -0.0388942 76.27857603 -0.04094812 83.1495924 -0.04411983 C102.62380637 -0.05292656 122.09801483 -0.05753911 141.57223081 -0.05678936 C143.14723993 -0.05672943 143.14723993 -0.05672943 144.75406742 -0.05666828 C145.80535307 -0.0566274 146.85663871 -0.05658652 147.93978149 -0.0565444 C164.98441672 -0.05613779 182.02902986 -0.06571109 199.0736587 -0.07980665 C216.56869952 -0.09416073 234.06372957 -0.10107739 251.55877644 -0.10021287 C261.38348514 -0.0998806 271.2081707 -0.10264112 281.03287411 -0.11339092 C289.39628733 -0.12248313 297.75966691 -0.12468168 306.12308293 -0.1178815 C310.39112115 -0.11460998 314.65909476 -0.11458235 318.92712688 -0.12323475 C322.83352378 -0.1310727 326.73980455 -0.12969614 330.64619852 -0.12095062 C332.06000969 -0.11940966 333.47382942 -0.12125413 334.88763051 -0.12681069 C336.8088542 -0.13386197 338.73011329 -0.12738839 340.65133667 -0.12025452 C341.7186782 -0.12047188 342.78601972 -0.12068925 343.88570493 -0.12091321 C347.14673011 0.15008668 349.83591514 0.97729729 352.88858891 2.12863445 C352.88858891 2.45863445 352.88858891 2.78863445 352.88858891 3.12863445 C351.59711162 2.96625349 350.30563433 2.80387253 348.97502136 2.63657093 C344.13583972 2.10177556 339.37035369 1.98848979 334.50566959 2.00165081 C333.60509293 2.00009082 332.70451628 1.99853083 331.77664942 1.99692357 C328.78277692 1.99295997 325.78895585 1.99608505 322.79508305 1.99923992 C320.63939223 1.99788389 318.48370166 1.99610282 316.32801151 1.99392986 C310.49181365 1.9893815 304.65563352 1.9911339 298.81943536 1.99430895 C292.71182505 1.99684368 286.60421624 1.99449212 280.49660587 1.99292278 C270.248602 1.99110531 260.00060535 1.99349734 249.75260258 1.99826336 C237.89239935 2.00371533 226.0322133 2.00193485 214.17201048 1.99643695 C203.99098884 1.99190591 193.80997238 1.99125492 183.62895006 1.99387562 C177.5469201 1.99543714 171.46489822 1.99563537 165.38286877 1.99233913 C159.6725976 1.98946022 153.96234871 1.99143648 148.25207996 1.99723339 C146.15175062 1.99856044 144.05141942 1.9981678 141.95109081 1.99597073 C139.0949091 1.99325735 136.23879976 1.99664258 133.38262272 2.00165081 C132.5424698 1.99942009 131.70231689 1.99718937 130.83670479 1.99489105 C126.73061009 1.90517779 126.73061009 1.90517779 122.88858891 3.12863445 C120.68129661 3.19956287 118.47191438 3.2127847 116.26358891 3.19113445 C115.07507328 3.18211102 113.88655766 3.17308758 112.66202641 3.1637907 C111.74679203 3.15218914 110.83155766 3.14058758 109.88858891 3.12863445 C109.88858891 2.46863445 109.88858891 1.80863445 109.88858891 1.12863445 C49.99358891 1.62363445 49.99358891 1.62363445 -11.11141109 2.12863445 C-11.11141109 1.79863445 -11.11141109 1.46863445 -11.11141109 1.12863445 C-7.34525186 0.25386165 -3.86284402 0.00254979 0 0 Z " fill="#ACEDF1" transform="translate(44.11141109466553,4.871365547180176)"/>
<path d="M0 0 C0.86367187 -0.00257812 1.72734375 -0.00515625 2.6171875 -0.0078125 C5.125 0.125 5.125 0.125 6.90844727 0.625 C9.68170033 1.25057796 12.25465561 1.25475621 15.09765625 1.2578125 C16.81758789 1.25974609 16.81758789 1.25974609 18.57226562 1.26171875 C19.76529297 1.25785156 20.95832031 1.25398438 22.1875 1.25 C23.9828418 1.25580078 23.9828418 1.25580078 25.81445312 1.26171875 C26.95978516 1.26042969 28.10511719 1.25914063 29.28515625 1.2578125 C30.33324463 1.25668457 31.38133301 1.25555664 32.46118164 1.25439453 C35.22974232 1.23999005 35.22974232 1.23999005 38.125 0.125 C40.12662777 0.44841517 42.12631733 0.78385678 44.125 1.125 C47.00989087 1.28110008 49.89232156 1.27966767 52.78097534 1.28321838 C54.06885883 1.29062535 54.06885883 1.29062535 55.38276017 1.29818195 C58.25240463 1.31350889 61.1220268 1.32190453 63.99169922 1.33032227 C66.05167333 1.33990457 68.11164549 1.34991485 70.1716156 1.36032104 C75.75991255 1.38733801 81.34821792 1.40836496 86.93654394 1.42832303 C92.77819697 1.45020236 98.61982414 1.47758153 104.4614563 1.50437927 C115.52164892 1.55427982 126.58185591 1.59922845 137.64207661 1.64240164 C150.23449628 1.69179655 162.82689001 1.74670633 175.41928458 1.80208123 C201.32116551 1.91586078 227.22307133 2.0227086 253.125 2.125 C253.125 2.455 253.125 2.785 253.125 3.125 C148.515 3.125 43.905 3.125 -63.875 3.125 C-63.875 2.795 -63.875 2.465 -63.875 2.125 C-57.6684765 1.01667275 -51.61731491 1.01282536 -45.32421875 1.0625 C-44.22906448 1.06628662 -43.13391022 1.07007324 -42.00556946 1.07397461 C-38.52450543 1.08614546 -35.04352605 1.10478806 -31.5625 1.125 C-26.962242 1.151509 -22.36202398 1.17152414 -17.76171875 1.1875 C-16.16960823 1.19994751 -16.16960823 1.19994751 -14.54533386 1.21264648 C-13.56704117 1.21594971 -12.58874847 1.21925293 -11.58081055 1.22265625 C-10.71812057 1.22789307 -9.8554306 1.23312988 -8.96659851 1.23852539 C-5.80279961 1.06680433 -3.33828494 -0.00990589 0 0 Z " fill="#83E0E7" transform="translate(133.875,14.875)"/>
<path d="M0 0 C0.33 0 0.66 0 1 0 C1.07013232 19.81053264 1.12300887 39.62104003 1.15543652 59.43167114 C1.17089454 68.6304337 1.19196369 77.82911904 1.22631836 87.02783203 C1.25625332 95.04697186 1.27558274 103.06605575 1.28226548 111.0852499 C1.2861708 115.32996483 1.29532662 119.57451978 1.31719017 123.81918335 C1.33762011 127.81808746 1.34382071 131.81676635 1.33932304 135.8157177 C1.34014534 137.27979699 1.34607223 138.74388416 1.35761642 140.20791817 C1.4143142 147.77220473 1.43741375 154.16160677 -2 161 C-2.99 161.99 -2.99 161.99 -4 163 C-3.93941406 162.23373291 -3.87882812 161.46746582 -3.81640625 160.67797852 C-2.51073042 143.71298093 -1.77992576 126.88485555 -1.98632812 109.86743164 C-2.10004775 98.89551854 -2.10004775 98.89551854 -1.51171875 94.9609375 C-0.72079796 88.83884832 -0.85613506 82.72819224 -0.875 76.5625 C-0.87113281 75.27150391 -0.86726563 73.98050781 -0.86328125 72.65039062 C-0.86457031 71.42642578 -0.86585938 70.20246094 -0.8671875 68.94140625 C-0.86831543 67.82451416 -0.86944336 66.70762207 -0.87060547 65.55688477 C-0.71019541 63.06631635 -0.71019541 63.06631635 -2 62 C-2.10005826 59.87819862 -2.13081087 57.75306461 -2.1328125 55.62890625 C-2.13410156 54.33275391 -2.13539063 53.03660156 -2.13671875 51.70117188 C-2.13462402 51.0223999 -2.1325293 50.34362793 -2.13037109 49.64428711 C-2.1250313 47.57463211 -2.13031193 45.505195 -2.13671875 43.43554688 C-2.13542969 42.13810547 -2.13414062 40.84066406 -2.1328125 39.50390625 C-2.13168457 38.30580322 -2.13055664 37.1077002 -2.12939453 35.87329102 C-2 33 -2 33 -1 31 C-0.84479443 28.67726841 -0.74980833 26.35040687 -0.68359375 24.0234375 C-0.6524221 22.99556625 -0.6524221 22.99556625 -0.62062073 21.94692993 C-0.55519815 19.75638931 -0.49627446 17.56572811 -0.4375 15.375 C-0.39430782 13.8906125 -0.3506933 12.40623722 -0.30664062 10.921875 C-0.19952447 7.28137916 -0.09823638 3.64074749 0 0 Z " fill="#CEF6FB" transform="translate(408,207)"/>
<path d="M0 0 C0.87591797 0.00322266 1.75183594 0.00644531 2.65429688 0.00976562 C3.52634766 -0.00634766 4.39839844 -0.02246094 5.296875 -0.0390625 C6.55467773 -0.0400293 6.55467773 -0.0400293 7.83789062 -0.04101562 C8.60544678 -0.04399658 9.37300293 -0.04697754 10.16381836 -0.05004883 C12.75309229 0.41952458 13.63432238 1.2538271 15.21679688 3.32226562 C15.62392923 6.0364813 15.66312358 7.59063989 14.22070312 9.95507812 C11.00587264 12.14843226 7.53219917 11.75398455 3.77929688 11.69726562 C3.01552734 11.70886719 2.25175781 11.72046875 1.46484375 11.73242188 C-1.96666468 11.71450277 -4.22669931 11.6173944 -7.29492188 9.99023438 C-8.78320312 8.32226562 -8.78320312 8.32226562 -9.15820312 5.25976562 C-8.40492314 -0.64092757 -4.9567196 0.04197376 0 0 Z " fill="#7EE3E9" transform="translate(290.783203125,305.677734375)"/>
<path d="M0 0 C1.40958984 -0.00193359 1.40958984 -0.00193359 2.84765625 -0.00390625 C3.83636719 -0.00003906 4.82507813 0.00382812 5.84375 0.0078125 C7.32681641 0.00201172 7.32681641 0.00201172 8.83984375 -0.00390625 C9.77957031 -0.00261719 10.71929687 -0.00132812 11.6875 0 C12.55568359 0.00112793 13.42386719 0.00225586 14.31835938 0.00341797 C16.34375 0.1328125 16.34375 0.1328125 17.34375 1.1328125 C17.53125 4.0703125 17.53125 4.0703125 17.34375 7.1328125 C14.93545208 9.54111042 14.35091444 9.38883829 11.0625 9.3984375 C10.22074219 9.40101563 9.37898437 9.40359375 8.51171875 9.40625 C7.19107422 9.39464844 7.19107422 9.39464844 5.84375 9.3828125 C4.96332031 9.39054687 4.08289063 9.39828125 3.17578125 9.40625 C2.33402344 9.40367187 1.49226562 9.40109375 0.625 9.3984375 C-0.14779297 9.39618164 -0.92058594 9.39392578 -1.71679688 9.39160156 C-3.65625 9.1328125 -3.65625 9.1328125 -5.65625 7.1328125 C-5.84375 4.0703125 -5.84375 4.0703125 -5.65625 1.1328125 C-4.03424485 -0.48919265 -2.23601969 0.002905 0 0 Z " fill="#84E4EB" transform="translate(132.65625,306.8671875)"/>
<path d="M0 0 C-3.50621285 2.15613015 -6.30156433 2.24800685 -10.37646484 2.24291992 C-12.34492371 2.24747444 -12.34492371 2.24747444 -14.35314941 2.25212097 C-15.80574677 2.24517611 -17.2583428 2.23794923 -18.7109375 2.23046875 C-20.24214657 2.22960954 -21.77335625 2.22953231 -23.30456543 2.23017883 C-27.46163619 2.22901785 -31.61856563 2.21457065 -35.77559662 2.19723511 C-39.24252372 2.18425101 -42.70944835 2.17869294 -46.17639351 2.17279625 C-84.12048957 2.10332213 -122.06094634 1.59118639 -160 1 C-160 0.67 -160 0.34 -160 0 C-139.72925136 -0.15388755 -119.45846807 -0.30192123 -99.18762589 -0.4429636 C-89.7757774 -0.50858711 -80.36395003 -0.57613465 -70.95214844 -0.64819336 C-62.74995517 -0.71098619 -54.54774524 -0.77018769 -46.34549499 -0.82505554 C-42.00146645 -0.85424032 -37.65746773 -0.88523773 -33.31348419 -0.92053413 C-29.22602971 -0.95368945 -25.13857021 -0.98204808 -21.05105591 -1.00670624 C-19.54981969 -1.01661205 -18.04859392 -1.0282799 -16.54738617 -1.04183006 C-14.49942123 -1.06005323 -12.45139816 -1.071353 -10.40338135 -1.08229065 C-9.25667088 -1.09058679 -8.1099604 -1.09888292 -6.92850113 -1.10743046 C-4.42406944 -1.01555676 -2.38098375 -0.73650108 0 0 Z " fill="#E7FEFE" transform="translate(387,195)"/>
<path d="M0 0 C42.24 0 84.48 0 128 0 C128 0.33 128 0.66 128 1 C127.23816406 1.06058594 126.47632813 1.12117188 125.69140625 1.18359375 C124.65886719 1.26738281 123.62632812 1.35117187 122.5625 1.4375 C120.90154297 1.57091797 120.90154297 1.57091797 119.20703125 1.70703125 C116.6954589 1.93646843 114.24147331 2.25248846 111.75 2.625 C107.78183091 3.07606418 104.02330901 2.84672583 100.04492188 2.54321289 C89.87943101 1.83863758 79.71735951 1.77235008 69.53125 1.68359375 C67.51387158 1.66296606 65.49649691 1.64196833 63.47912598 1.62062073 C58.22519005 1.56599934 52.97121912 1.51633143 47.71722412 1.46777344 C42.3335873 1.41711449 36.94999994 1.3616626 31.56640625 1.30664062 C21.0443133 1.19979468 10.52217701 1.0981933 0 1 C0 0.67 0 0.34 0 0 Z " fill="#9AE8EC" transform="translate(261,381)"/>
<path d="M0 0 C1.15294805 3.67653366 0.50712613 5.89574084 -0.515625 9.5859375 C-1.8377719 16.17534705 -1.45272784 23.46272472 0 30 C0.66 30 1.32 30 2 30 C2.495 33.96 2.495 33.96 3 38 C1.35 38.66 -0.3 39.32 -2 40 C-1.505 39.01 -1.505 39.01 -1 38 C-0.75 34.5 -0.75 34.5 -1 31 C-3.84614024 28.15385976 -6.80369142 28.54420924 -10.625 28.375 C-11.33140625 28.33632812 -12.0378125 28.29765625 -12.765625 28.2578125 C-14.50998524 28.16352276 -16.25495691 28.08067109 -18 28 C-17.67 27.34 -17.34 26.68 -17 26 C-16.01 26 -15.02 26 -14 26 C-14 21.38 -14 16.76 -14 12 C-13.67 12 -13.34 12 -13 12 C-13 16.62 -13 21.24 -13 26 C-10.03 26 -7.06 26 -4 26 C-4 20.06 -4 14.12 -4 8 C-9.07224747 7.95409731 -14.1437748 7.91426979 -19.21606445 7.89013672 C-20.94167523 7.88007674 -22.66726895 7.86642724 -24.39282227 7.84912109 C-26.8726014 7.82487246 -29.35215523 7.81351699 -31.83203125 7.8046875 C-32.60400345 7.79436493 -33.37597565 7.78404236 -34.17134094 7.77340698 C-37.99281476 7.77260578 -39.74136107 7.82757405 -43 10 C-45.1875 9.625 -45.1875 9.625 -47 9 C-41.7410622 5.77546034 -37.62967406 5.59758518 -31.6640625 5.70703125 C-30.78471039 5.71127609 -29.90535828 5.71552094 -28.99935913 5.71989441 C-26.20758658 5.73660539 -23.41655212 5.77424308 -20.625 5.8125 C-18.72527089 5.82755666 -16.82553039 5.84124334 -14.92578125 5.85351562 C-10.28357242 5.88648402 -5.64191109 5.93821347 -1 6 C-0.67 4.02 -0.34 2.04 0 0 Z " fill="#C1F5F7" transform="translate(168,99)"/>
<path d="M0 0 C22.11 0 44.22 0 67 0 C66.67 0.66 66.34 1.32 66 2 C43.93433192 2.80909284 22.06206029 3.14476628 0 2 C0 1.34 0 0.68 0 0 Z " fill="#84E4E7" transform="translate(217,182)"/>
<path d="M0 0 C6.13545817 -0.66932271 6.13545817 -0.66932271 8.9375 1.5 C9.288125 1.995 9.63875 2.49 10 3 C8.700625 2.979375 7.40125 2.95875 6.0625 2.9375 C4.70834367 2.91600546 3.35243917 2.92851801 2 3 C0.48578999 4.51421001 0.78690144 5.92472768 0.68359375 8.03515625 C0.64169922 8.84404297 0.59980469 9.65292969 0.55664062 10.48632812 C0.51732422 11.33646484 0.47800781 12.18660156 0.4375 13.0625 C0.39431641 13.91650391 0.35113281 14.77050781 0.30664062 15.65039062 C0.20023298 17.76672037 0.09958269 19.88333813 0 22 C-3.00313748 23.50156874 -5.79067522 23.09281204 -9.125 23.0625 C-10.40632813 23.05347656 -11.68765625 23.04445313 -13.0078125 23.03515625 C-13.99523438 23.02355469 -14.98265625 23.01195312 -16 23 C-16.12375 23.61875 -16.2475 24.2375 -16.375 24.875 C-17 27 -17 27 -19 29 C-19.99 29 -20.98 29 -22 29 C-22 26.36 -22 23.72 -22 21 C-15.4 21 -8.8 21 -2 21 C-2.07895506 15.21111367 -2.07895506 15.21111367 -2.18017578 9.42260742 C-2.1851709 8.69920166 -2.19016602 7.9757959 -2.1953125 7.23046875 C-2.20578613 6.49207764 -2.21625977 5.75368652 -2.22705078 4.99291992 C-2 3 -2 3 0 0 Z " fill="#77E0DE" transform="translate(70,284)"/>
<path d="M0 0 C3.89167336 3.50250602 5.78128752 6.48538927 6.24050903 11.76521301 C6.23606781 12.76670883 6.23162659 13.76820465 6.22705078 14.80004883 C6.22689972 15.94085403 6.22674866 17.08165924 6.22659302 18.2570343 C6.21627045 19.47803329 6.20594788 20.69903229 6.1953125 21.95703125 C6.19106766 23.84418098 6.19106766 23.84418098 6.18673706 25.76945496 C6.17745121 29.10187382 6.15950476 32.43401547 6.1373291 35.76635742 C6.11681017 39.17168797 6.10772246 42.57704723 6.09765625 45.98242188 C6.0756164 52.65502418 6.0421539 59.32749609 6 66 C5.67 66 5.34 66 5 66 C4.67 54.78 4.34 43.56 4 32 C3.67 32 3.34 32 3 32 C3 23.09 3 14.18 3 5 C2.01 4.67 1.02 4.34 0 4 C0 2.68 0 1.36 0 0 Z " fill="#CFF5FC" transform="translate(403,26)"/>
<path d="M0 0 C1.875 -0.36328125 1.875 -0.36328125 4 -0.3125 C4.70125 -0.30863281 5.4025 -0.30476563 6.125 -0.30078125 C8 0 8 0 10 2 C10.14517744 4.9093558 10.18630796 7.719946 10.125 10.625 C10.11597656 11.42679687 10.10695313 12.22859375 10.09765625 13.0546875 C10.07406223 15.03658523 10.03819065 17.01832981 10 19 C9.67 19 9.34 19 9 19 C8.67 13.39 8.34 7.78 8 2 C6.35 1.67 4.7 1.34 3 1 C3 1.99 3 2.98 3 4 C2.01 4.495 2.01 4.495 1 5 C0.34 19.85 -0.32 34.7 -1 50 C-1.33 50 -1.66 50 -2 50 C-2.05064489 43.36144258 -2.08571023 36.72293486 -2.10986328 30.08422852 C-2.11993058 27.82509499 -2.13358538 25.56597453 -2.15087891 23.30688477 C-2.17509508 20.06263001 -2.18647575 16.81854729 -2.1953125 13.57421875 C-2.20563507 12.56163498 -2.21595764 11.54905121 -2.22659302 10.50578308 C-2.22674408 9.56503433 -2.22689514 8.62428558 -2.22705078 7.6550293 C-2.231492 6.82674118 -2.23593323 5.99845306 -2.24050903 5.14506531 C-2 3 -2 3 0 0 Z " fill="#82DFE3" transform="translate(37,284)"/>
<path d="M0 0 C0.66 0.33 1.32 0.66 2 1 C1 3 1 3 -2.5 4.1875 C-3.655 4.785625 -4.81 5.38375 -6 6 C-6.74176007 9.52513528 -6.74176007 9.52513528 -7 13 C-9.99459327 15.55094982 -13.20536415 15.17248345 -17 15 C-16.01 13.02 -15.02 11.04 -14 9 C-12.68 9 -11.36 9 -10 9 C-10 7.68 -10 6.36 -10 5 C-8.38007835 4.13624104 -6.75388139 3.28424146 -5.125 2.4375 C-4.22007812 1.96183594 -3.31515625 1.48617187 -2.3828125 0.99609375 C-1.59648437 0.66738281 -0.81015625 0.33867188 0 0 Z " fill="#7BE2EF" transform="translate(183,67)"/>
<path d="M0 0 C0.68707031 0.42152344 1.37414062 0.84304687 2.08203125 1.27734375 C2.98308594 1.82519531 3.88414062 2.37304688 4.8125 2.9375 C5.70582031 3.48277344 6.59914062 4.02804688 7.51953125 4.58984375 C10.97612554 6.55493121 13.68880674 7.130544 17.59765625 7.24609375 C18.48130859 7.27896484 19.36496094 7.31183594 20.27539062 7.34570312 C22.1372414 7.40702547 23.99922976 7.46430106 25.86132812 7.51757812 C26.74369141 7.55173828 27.62605469 7.58589844 28.53515625 7.62109375 C29.343479 7.6461499 30.15180176 7.67120605 30.98461914 7.69702148 C33 8 33 8 35 10 C32.06281233 10.19461488 29.12550068 10.38097593 26.1875 10.5625 C25.35412109 10.61857422 24.52074219 10.67464844 23.66210938 10.73242188 C22.85966797 10.78076172 22.05722656 10.82910156 21.23046875 10.87890625 C20.49207764 10.9260376 19.75368652 10.97316895 18.99291992 11.02172852 C17 11 17 11 14 10 C13.01 10.495 13.01 10.495 12 11 C12 10.01 12 9.02 12 8 C11.0925 7.87625 10.185 7.7525 9.25 7.625 C4.35789474 6.68421053 4.35789474 6.68421053 2 5 C1.29048182 3.35111972 0.6195526 1.68474829 0 0 Z " fill="#8AE5EB" transform="translate(139,174)"/>
<path d="M0 0 C0.6953125 1.671875 0.6953125 1.671875 1 4 C-0.2578125 6.578125 -0.2578125 6.578125 -2.125 9.25 C-2.72570312 10.14203125 -3.32640625 11.0340625 -3.9453125 11.953125 C-6 14 -6 14 -8.5546875 14.421875 C-11 14 -11 14 -14 12 C-14 11.34 -14 10.68 -14 10 C-14.9590625 9.8453125 -14.9590625 9.8453125 -15.9375 9.6875 C-20.06477326 8.76096927 -24.00642949 7.38339371 -28 6 C-27.34 5.34 -26.68 4.68 -26 4 C-18.64155399 5.75127943 -13.0572146 8.47903548 -7 13 C-6.58621094 11.89591797 -6.58621094 11.89591797 -6.1640625 10.76953125 C-5.08655304 8.20592653 -3.87716067 6.0198021 -2.375 3.6875 C-1.92898437 2.99011719 -1.48296875 2.29273438 -1.0234375 1.57421875 C-0.51683594 0.79498047 -0.51683594 0.79498047 0 0 Z " fill="#83E2E5" transform="translate(249,61)"/>
<path d="M0 0 C0.33 0 0.66 0 1 0 C1.08735463 4.54154478 1.14051247 9.08287232 1.1875 13.625 C1.22520508 15.55279297 1.22520508 15.55279297 1.26367188 17.51953125 C1.27817383 19.38544922 1.27817383 19.38544922 1.29296875 21.2890625 C1.3086792 22.43068848 1.32438965 23.57231445 1.34057617 24.74853516 C0.95723398 28.4082852 -0.1794943 30.82933839 -2 34 C-3.03399329 30.89802014 -2.80528208 29.27390713 -2.2890625 26.12695312 C-1.58214028 20.92534302 -1.58758653 15.62781214 -1.39453125 10.38671875 C-1.35714844 9.48050781 -1.31976563 8.57429688 -1.28125 7.640625 C-1.25095703 6.82110352 -1.22066406 6.00158203 -1.18945312 5.15722656 C-1 3 -1 3 0 0 Z " fill="#DEF8FC" transform="translate(407,336)"/>
<path d="M0 0 C3.19175247 3.19175247 3.89695839 6.03827835 4.375 10.5 C4.21488156 17.47849527 1.85409253 25.21886121 -2 31 C-2.66 30.67 -3.32 30.34 -4 30 C-3.71415039 29.47865479 -3.42830078 28.95730957 -3.13378906 28.42016602 C0.0352469 22.10354389 0.50300048 16.92907096 0.25 9.9375 C0.22292969 8.49600586 0.22292969 8.49600586 0.1953125 7.02539062 C0.14868796 4.68250773 0.08328169 2.3418171 0 0 Z " fill="#87DFEC" transform="translate(406,139)"/>
<path d="M0 0 C2.375 0.8125 2.375 0.8125 4.375 2.8125 C4.64491906 5.50089385 4.46237357 8.10391936 4.375 10.8125 C2.59793791 8.14690687 1.49951727 5.7844385 0.375 2.8125 C-2.2091005 4.36051956 -2.2091005 4.36051956 -4.625 6.8125 C-5.51555736 10.45432335 -5.51555736 10.45432335 -5.625 13.8125 C-5.955 13.8125 -6.285 13.8125 -6.625 13.8125 C-6.73315225 12.04300905 -6.81066083 10.27162513 -6.875 8.5 C-6.92140625 7.51386719 -6.9678125 6.52773437 -7.015625 5.51171875 C-6.625 2.8125 -6.625 2.8125 -4.7734375 0.9453125 C-2.625 -0.1875 -2.625 -0.1875 0 0 Z " fill="#73D8DA" transform="translate(415.625,202.1875)"/>
<path d="M0 0 C6.6 0 13.2 0 20 0 C20 0.33 20 0.66 20 1 C15.38 1.33 10.76 1.66 6 2 C5.67 3.32 5.34 4.64 5 6 C4.34 6.66 3.68 7.32 3 8 C2.01 8 1.02 8 0 8 C0 5.36 0 2.72 0 0 Z " fill="#7FE1ED" transform="translate(48,305)"/>
<path d="M0 0 C0.33 0 0.66 0 1 0 C1.24965165 10.554717 0.67901457 20.56612375 -1 31 C-1.33 31 -1.66 31 -2 31 C-2.38297872 9.27659574 -2.38297872 9.27659574 0 0 Z " fill="#7EE1E3" transform="translate(80,133)"/>
<path d="M0 0 C1.09411068 3.28233205 0.88213589 4.92858683 0.4375 8.3125 C-0.03918489 12.84696501 0.34500009 15.71647081 2 20 C2.07522969 22.33212027 2.09325876 24.6685311 2 27 C-1.62720477 21.55919284 -2.27578149 16.7900987 -2.25 10.3125 C-2.25515625 9.00925781 -2.2603125 7.70601562 -2.265625 6.36328125 C-2 3 -2 3 0 0 Z " fill="#82DCDA" transform="translate(125,150)"/>
<path d="M0 0 C3 2 3 2 3.6875 4.75 C5.33915441 20.99126838 5.33915441 20.99126838 2 26 C1.34 17.42 0.68 8.84 0 0 Z " fill="#CAEAFA" transform="translate(403,137)"/>
<path d="M0 0 C1.79244141 0.01740234 1.79244141 0.01740234 3.62109375 0.03515625 C5.41740234 0.04869141 5.41740234 0.04869141 7.25 0.0625 C8.17683594 0.07410156 9.10367187 0.08570313 10.05859375 0.09765625 C10.05859375 0.75765625 10.05859375 1.41765625 10.05859375 2.09765625 C9.37152344 2.195625 8.68445313 2.29359375 7.9765625 2.39453125 C7.07550781 2.5440625 6.17445313 2.69359375 5.24609375 2.84765625 C4.35277344 2.986875 3.45945312 3.12609375 2.5390625 3.26953125 C-0.44713283 4.26649725 -1.32520969 5.45589975 -2.94140625 8.09765625 C-3.94140625 7.09765625 -3.94140625 7.09765625 -4.06640625 4.09765625 C-3.90106714 0.1295175 -3.90106714 0.1295175 0 0 Z " fill="#74D9E1" transform="translate(354.94140625,284.90234375)"/>
<path d="M0 0 C0.99 0.33 1.98 0.66 3 1 C2.67 6.94 2.34 12.88 2 19 C4.64 19 7.28 19 10 19 C10 19.33 10 19.66 10 20 C7.03 20 4.06 20 1 20 C0.09761253 17.29283758 -0.11851302 15.76223232 -0.09765625 12.98828125 C-0.09443359 12.23095703 -0.09121094 11.47363281 -0.08789062 10.69335938 C-0.07951172 9.90767578 -0.07113281 9.12199219 -0.0625 8.3125 C-0.05798828 7.51521484 -0.05347656 6.71792969 -0.04882812 5.89648438 C-0.0370585 3.93095743 -0.01912348 1.96546915 0 0 Z " fill="#84E2E5" transform="translate(68,316)"/>
<path d="M0 0 C3.65084185 3.65084185 3.18568458 7.89055471 3.25 12.875 C3.27578125 14.06867188 3.3015625 15.26234375 3.328125 16.4921875 C2.971478 20.3049138 1.91012905 22.71256738 0 26 C-0.93423645 22.98968256 -1.04449911 22.13349732 0 19 C0.0806622 17.51876453 0.10761193 16.03417796 0.09765625 14.55078125 C0.09443359 13.70322266 0.09121094 12.85566406 0.08789062 11.98242188 C0.07951172 11.10134766 0.07113281 10.22027344 0.0625 9.3125 C0.05798828 8.41982422 0.05347656 7.52714844 0.04882812 6.60742188 C0.03704983 4.40488013 0.02060164 2.20247401 0 0 Z " fill="#DFFCFC" transform="translate(420,140)"/>
<path d="M0 0 C1.65 0.33 3.3 0.66 5 1 C5.125 3.875 5.125 3.875 5 7 C3 9 3 9 0.375 9.125 C-0.40875 9.08375 -1.1925 9.0425 -2 9 C-1.34 8.67 -0.68 8.34 0 8 C0 5.36 0 2.72 0 0 Z " fill="#71DBE1" transform="translate(145,307)"/>
<path d="M0 0 C-1.5174596 4.24888689 -4.3140482 5.61497237 -8 8 C-8.9075 8.9075 -9.815 9.815 -10.75 10.75 C-11.4925 11.4925 -12.235 12.235 -13 13 C-13.66 13 -14.32 13 -15 13 C-15 13.66 -15 14.32 -15 15 C-15.66 14.67 -16.32 14.34 -17 14 C-13.40090163 9.20120217 -6.33088547 0 0 0 Z " fill="#7FE4E2" transform="translate(106,102)"/>
<path d="M0 0 C6.44458729 2.34348629 11.94686328 4.55448914 15 11 C15.33 11.66 15.66 12.32 16 13 C12.24016339 12.43770301 10.58316426 10.90688582 8 8.1875 C7.34 7.50042969 6.68 6.81335937 6 6.10546875 C5.34 5.41066406 4.68 4.71585938 4 4 C2.67013436 2.66320797 1.33780507 1.32884655 0 0 Z " fill="#62D2D2" transform="translate(337,55)"/>
<path d="M0 0 C5.28 0 10.56 0 16 0 C16 0.33 16 0.66 16 1 C15.08476562 1.04898437 14.16953125 1.09796875 13.2265625 1.1484375 C12.03804687 1.22320312 10.84953125 1.29796875 9.625 1.375 C7.84996094 1.47941406 7.84996094 1.47941406 6.0390625 1.5859375 C2.89437681 1.70217346 2.89437681 1.70217346 1 4 C1 5.32 1 6.64 1 8 C4.3 8.33 7.6 8.66 11 9 C11 9.33 11 9.66 11 10 C7.04 10 3.08 10 -1 10 C-1.125 3.375 -1.125 3.375 0 0 Z " fill="#57DAE2" transform="translate(170,382)"/>
<path d="M0 0 C2.82879286 2.82879286 2.3142666 4.79924198 2.4140625 8.7578125 C2.44311172 9.75238968 2.44311172 9.75238968 2.4727478 10.76705933 C2.53255954 12.88624177 2.57893388 15.0054785 2.625 17.125 C2.66317845 18.56122169 2.70223011 19.99742045 2.7421875 21.43359375 C2.83826125 24.95551936 2.92228642 28.47761608 3 32 C1.51831055 30.91479492 1.51831055 30.91479492 0 29 C-0.34057617 25.99731445 -0.34057617 25.99731445 -0.29296875 22.36328125 C-0.2784668 20.41518555 -0.2784668 20.41518555 -0.26367188 18.42773438 C-0.23860585 17.05598361 -0.21321101 15.68423882 -0.1875 14.3125 C-0.1724502 12.92905076 -0.1587623 11.54558599 -0.14648438 10.16210938 C-0.11107223 6.77434793 -0.06168054 3.38736861 0 0 Z " fill="#88E2E7" transform="translate(358,87)"/>
<path d="M0 0 C7.34693878 -0.48979592 7.34693878 -0.48979592 10.5 1.875 C12 4 12 4 12 6 C12.66 6 13.32 6 14 6 C14 6.66 14 7.32 14 8 C14.99 8.33 15.98 8.66 17 9 C17.33 9.99 17.66 10.98 18 12 C14.8316623 10.59184991 12.63386295 8.87787814 10.125 6.5 C6.91528066 3.60884831 4.29282561 1.96588576 0 1 C0 0.67 0 0.34 0 0 Z " fill="#80E0E1" transform="translate(385,121)"/>
<path d="M0 0 C0 3.67819168 -0.76843318 4.22382655 -3.1875 6.875 C-3.82171875 7.57367188 -4.4559375 8.27234375 -5.109375 8.9921875 C-7.35961863 11.38190904 -9.64357276 13.71497964 -12 16 C-12 10.95830125 -8.21362833 7.67840928 -5 4 C-2.0625 1.4375 -2.0625 1.4375 0 0 Z " fill="#DCFAFB" transform="translate(109,115)"/>
<path d="M0 0 C1.41702513 0.14230808 2.8336096 0.28900746 4.25 0.4375 C5.43335938 0.55931641 5.43335938 0.55931641 6.640625 0.68359375 C8.82364639 0.97634993 10.8773182 1.42064419 13 2 C13 2.66 13 3.32 13 4 C15.31 4.33 17.62 4.66 20 5 C19.67 6.32 19.34 7.64 19 9 C16.47492501 7.787964 14.14244276 6.47227247 11.75 5 C7.95891162 2.7960701 4.27682928 1.90038511 0 1 C0 0.67 0 0.34 0 0 Z " fill="#D0F7F9" transform="translate(223,65)"/>
<path d="M0 0 C4.75 0.75 4.75 0.75 7 3 C7.5 5.3125 7.5 5.3125 7 8 C3.53516778 11.54540971 1.06696738 13.55291464 -4 14 C-3.67 13.34 -3.34 12.68 -3 12 C-0.4375 11.375 -0.4375 11.375 2 11 C2.33 10.01 2.66 9.02 3 8 C3.66 8 4.32 8 5 8 C5 6.35 5 4.7 5 3 C4.34 3 3.68 3 3 3 C3 2.34 3 1.68 3 1 C2.01 0.67 1.02 0.34 0 0 Z " fill="#69D5DB" transform="translate(230,321)"/>
<path d="M0 0 C0.33 0 0.66 0 1 0 C1.125 2.875 1.125 2.875 1 6 C-1 8 -1 8 -4 8.25 C-7 8 -7 8 -9 6 C-8.030625 5.71125 -7.06125 5.4225 -6.0625 5.125 C-2.89335797 4.35785318 -2.89335797 4.35785318 -2 2 C-1.34 2 -0.68 2 0 2 C0 1.34 0 0.68 0 0 Z " fill="#57D6D9" transform="translate(250,83)"/>
<path d="M0 0 C1.13388363 3.64120378 0.57326921 5.9007693 -0.453125 9.5625 C-1.51581926 14.29908011 -1.6937853 19.16503107 -2 24 C-2.33 24 -2.66 24 -3 24 C-3.2498764 21.4380143 -3.47541116 18.87765869 -3.6875 16.3125 C-3.76033203 15.59126953 -3.83316406 14.87003906 -3.90820312 14.12695312 C-4.27654957 9.38178417 -3.79572155 6.83117398 -1 3 C-0.67 2.01 -0.34 1.02 0 0 Z " fill="#DBFBFC" transform="translate(168,99)"/>
<path d="M0 0 C0.66 0 1.32 0 2 0 C1.97679687 1.00160156 1.95359375 2.00320312 1.9296875 3.03515625 C1.91091211 4.37759664 1.89271382 5.72004518 1.875 7.0625 C1.85179687 8.37347656 1.82859375 9.68445313 1.8046875 11.03515625 C2.00582478 15.11824299 2.72834538 18.14999053 4 22 C3.01 21.67 2.02 21.34 1 21 C0.07811539 18.23434618 -0.11785222 16.61716298 -0.09765625 13.76953125 C-0.09282227 12.56586914 -0.09282227 12.56586914 -0.08789062 11.33789062 C-0.07951172 10.50451172 -0.07113281 9.67113281 -0.0625 8.8125 C-0.05798828 7.96751953 -0.05347656 7.12253906 -0.04882812 6.25195312 C-0.03705403 4.16793845 -0.0191189 2.08396023 0 0 Z " fill="#82DFDF" transform="translate(135,152)"/>
<path d="M0 0 C0.66 0.33 1.32 0.66 2 1 C0.21479439 3.00611734 -1.57758712 5.0048717 -3.375 7 C-3.88289063 7.57234375 -4.39078125 8.1446875 -4.9140625 8.734375 C-6.23504905 10.19441277 -7.61400799 11.60152157 -9 13 C-9.66 13 -10.32 13 -11 13 C-9.46356148 9.31930113 -7.21849055 7.01224796 -4.375 4.25 C-3.55773437 3.45078125 -2.74046875 2.6515625 -1.8984375 1.828125 C-0.95871094 0.92320313 -0.95871094 0.92320313 0 0 Z " fill="#DEFAFC" transform="translate(270,59)"/>
<path d="M0 0 C0.33 0.99 0.66 1.98 1 3 C-1.64 5.64 -4.28 8.28 -7 11 C-7.33 10.34 -7.66 9.68 -8 9 C-6.07666989 4.93963643 -3.59930552 2.62652025 0 0 Z " fill="#6BDCDB" transform="translate(137,132)"/>
<path d="M0 0 C0.99 0 1.98 0 3 0 C1.9475548 2.75254898 0.82342035 5.33196973 -0.5625 7.9375 C-2.01073597 11.02287228 -2.59908864 13.63234459 -3 17 C-3.33 17 -3.66 17 -4 17 C-4.56131481 10.54487966 -2.63463787 5.84560277 0 0 Z " fill="#D8FBFB" transform="translate(10,20)"/>
<path d="M0 0 C0.66 0 1.32 0 2 0 C2 2.64 2 5.28 2 8 C0.35 8 -1.3 8 -3 8 C-1.125 1.125 -1.125 1.125 0 0 Z " fill="#40C4C4" transform="translate(196,294)"/>
<path d="M0 0 C-1.55367366 1.01365893 -3.11837836 2.01042256 -4.6875 3 C-5.99267578 3.8353125 -5.99267578 3.8353125 -7.32421875 4.6875 C-10.16973337 6.08325608 -11.8788594 6.26993648 -15 6 C-12.61827612 3.26455475 -10.29334709 2.07454642 -6.9375 0.75 C-6.05964844 0.39421875 -5.18179687 0.0384375 -4.27734375 -0.328125 C-2 -1 -2 -1 0 0 Z " fill="#90E5EA" transform="translate(283,39)"/>
<path d="M0 0 C4.62 0 9.24 0 14 0 C14 2.31 14 4.62 14 7 C13.01 7.495 13.01 7.495 12 8 C11.67 6.02 11.34 4.04 11 2 C7.37 1.67 3.74 1.34 0 1 C0 0.67 0 0.34 0 0 Z " fill="#88E1E4" transform="translate(379,327)"/>
<path d="M0 0 C0.66 0.33 1.32 0.66 2 1 C0.37280823 4.25438355 -2.73080811 4.70359632 -6 6 C-6.99 6.33 -7.98 6.66 -9 7 C-9.33 7.66 -9.66 8.32 -10 9 C-10 7.68 -10 6.36 -10 5 C-8.38007835 4.13624104 -6.75388139 3.28424146 -5.125 2.4375 C-4.22007812 1.96183594 -3.31515625 1.48617187 -2.3828125 0.99609375 C-1.20332031 0.50302734 -1.20332031 0.50302734 0 0 Z " fill="#98E6EE" transform="translate(183,67)"/>
<path d="M0 0 C0.66 0.33 1.32 0.66 2 1 C0.55922954 4.36179774 -1.24750021 6.59156268 -4 9 C-4.66 9 -5.32 9 -6 9 C-4.47291037 5.56404834 -2.40072955 2.88087546 0 0 Z " fill="#DCFBFC" transform="translate(143,144)"/>
<path d="M0 0 C1 3 1 3 0 5.1875 C-2 7 -2 7 -5.6875 7.25 C-6.780625 7.1675 -7.87375 7.085 -9 7 C-8.1646875 6.38125 -8.1646875 6.38125 -7.3125 5.75 C-4.83804044 3.87743601 -2.4164771 1.94660656 0 0 Z " fill="#CAF8FB" transform="translate(407,385)"/>
<path d="M0 0 C0.33 0 0.66 0 1 0 C1.29296875 6.0546875 1.29296875 6.0546875 1 8 C-2 10 -2 10 -5.125 9.75 C-6.548125 9.37875 -6.548125 9.37875 -8 9 C-8.33 8.34 -8.66 7.68 -9 7 C-6.03 7 -3.06 7 0 7 C0 4.69 0 2.38 0 0 Z " fill="#72DCD7" transform="translate(419,86)"/>
<path d="M0 0 C0.33 0 0.66 0 1 0 C1.36923077 7.38461538 1.36923077 7.38461538 -0.5 10.5 C-0.995 10.995 -1.49 11.49 -2 12 C-2.66 11.67 -3.32 11.34 -4 11 C-3.52269162 9.5410574 -3.04308958 8.08286504 -2.5625 6.625 C-2.29566406 5.81289062 -2.02882812 5.00078125 -1.75390625 4.1640625 C-1 2 -1 2 0 0 Z " fill="#D3F7F9" transform="translate(253,79)"/>
<path d="M0 0 C0.99 0.33 1.98 0.66 3 1 C2.38125 1.2475 1.7625 1.495 1.125 1.75 C-1.41292362 3.24289625 -1.7414688 4.40427941 -3 7 C-5.125 8.75 -5.125 8.75 -7 10 C-7 9.01 -7 8.02 -7 7 C-6.34 7 -5.68 7 -5 7 C-5 6.34 -5 5.68 -5 5 C-4.34 5 -3.68 5 -3 5 C-2.690625 4.360625 -2.38125 3.72125 -2.0625 3.0625 C-1 1 -1 1 0 0 Z " fill="#6AD8D7" transform="translate(105,116)"/>
<path d="M0 0 C-6.57608696 4.63315217 -6.57608696 4.63315217 -10 5 C-10.66 4.67 -11.32 4.34 -12 4 C-9 2 -9 2 -6 2 C-6 1.34 -6 0.68 -6 0 C-3.50907189 -1.24546405 -2.58919267 -0.7767578 0 0 Z " fill="#81E6E8" transform="translate(33,8)"/>
<path d="M0 0 C0 0.99 0 1.98 0 3 C-2.25 5.25 -2.25 5.25 -5 7 C-7.3125 6.75 -7.3125 6.75 -9 6 C-6.11912454 3.59927045 -3.43595166 1.52708963 0 0 Z " fill="#8EE4E8" transform="translate(205,287)"/>
<path d="M0 0 C3.125 0.25 3.125 0.25 5 1.75 C5.37125 2.245 5.7425 2.74 6.125 3.25 C-0.5 3.5 -0.5 3.5 -3.875 1.25 C-2.875 0.25 -2.875 0.25 0 0 Z " fill="#47D2D9" transform="translate(372.875,284.75)"/>
<path d="M0 0 C3.01111938 4.51667907 3.10067926 7.6639991 3 13 C1.24905885 10.37358828 0.54725362 8.89308789 -0.1875 5.9375 C-0.36667969 5.24527344 -0.54585938 4.55304688 -0.73046875 3.83984375 C-1 2 -1 2 0 0 Z " fill="#8AE5E5" transform="translate(124,164)"/>
<path d="M0 0 C3.39417765 3.12621626 5.6062718 5.56541027 7 10 C5.68 10 4.36 10 3 10 C2.87625 9.278125 2.7525 8.55625 2.625 7.8125 C2.0095069 5.04278106 1.11555626 2.6029646 0 0 Z " fill="#90E2E6" transform="translate(410,123)"/>
<path d="M0 0 C0.66 0.33 1.32 0.66 2 1 C-0.5162178 3.60608273 -3.05134359 5.89381685 -6 8 C-6.66 7.67 -7.32 7.34 -8 7 C-5.36 4.69 -2.72 2.38 0 0 Z " fill="#CAF7F6" transform="translate(183,82)"/>
<path d="M0 0 C5.12583611 -0.10251672 9.94997778 -0.03590199 15 1 C15 1.33 15 1.66 15 2 C11.7 2.33 8.4 2.66 5 3 C5 2.67 5 2.34 5 2 C3.35 1.67 1.7 1.34 0 1 C0 0.67 0 0.34 0 0 Z " fill="#D1F7FA" transform="translate(201,76)"/>
<path d="M0 0 C0 0.66 0 1.32 0 2 C-3.96 1.67 -7.92 1.34 -12 1 C-12 0.67 -12 0.34 -12 0 C-7.74433453 -1.16063604 -4.3164922 -0.76173392 0 0 Z " fill="#87E2EA" transform="translate(216,75)"/>
<path d="M0 0 C0.33 0.99 0.66 1.98 1 3 C-1.31 4.98 -3.62 6.96 -6 9 C-4.86634892 4.46539569 -3.35806626 3.09975347 0 0 Z " fill="#68DADD" transform="translate(414,375)"/>
<path d="M0 0 C0.99 0 1.98 0 3 0 C2.67 1.98 2.34 3.96 2 6 C2.66 6.33 3.32 6.66 4 7 C2.68 6.67 1.36 6.34 0 6 C-1.125 2.25 -1.125 2.25 0 0 Z " fill="#76E6EE" transform="translate(284,308)"/>
<path d="M0 0 C5.26053037 -0.31563182 8.44573816 0.33409063 13 3 C9.57056481 4.18771723 7.62215325 3.80226223 4.25 2.5625 C3.45078125 2.27503906 2.6515625 1.98757812 1.828125 1.69140625 C1.22484375 1.46324219 0.6215625 1.23507813 0 1 C0 0.67 0 0.34 0 0 Z " fill="#86E2E1" transform="translate(139,190)"/>
<path d="M0 0 C0.66666667 1.33333333 1.33333333 2.66666667 2 4 C2.37125 4.680625 2.7425 5.36125 3.125 6.0625 C4 8 4 8 4 11 C3.01 11 2.02 11 1 11 C-0.17571451 7.32589215 -0.07366746 3.83070817 0 0 Z " fill="#D9F9FA" transform="translate(124,170)"/>
<path d="M0 0 C1.32 0.33 2.64 0.66 4 1 C-1.75 5 -1.75 5 -4 5 C-4.33 3.68 -4.66 2.36 -5 1 C-2.525 1.495 -2.525 1.495 0 2 C0 1.34 0 0.68 0 0 Z " fill="#DBFBFC" transform="translate(395,173)"/>
<path d="M0 0 C4.2295083 1.4098361 5.08210924 4.16421847 7 8 C5.1875 7.8125 5.1875 7.8125 3 7 C0 2.82142857 0 2.82142857 0 0 Z " fill="#50D9D4" transform="translate(346,60)"/>
<path d="M0 0 C-0.33 0.99 -0.66 1.98 -1 3 C-1.99 3.33 -2.98 3.66 -4 4 C-5.37195574 5.29355827 -6.71182656 6.62298702 -8 8 C-8 7.01 -8 6.02 -8 5 C-2.65116279 0 -2.65116279 0 0 0 Z " fill="#D2F8FB" transform="translate(31,22)"/>
<path d="M0 0 C0.66 0 1.32 0 2 0 C2.6875 2.3125 2.6875 2.3125 3 5 C1.5625 6.8125 1.5625 6.8125 0 8 C-0.66 7.67 -1.32 7.34 -2 7 C-1.34 4.69 -0.68 2.38 0 0 Z " fill="#DAF9FA" transform="translate(236,290)"/>
<path d="M0 0 C2.625 0.9375 2.625 0.9375 5 2 C5 2.99 5 3.98 5 5 C2.97954558 4.39816251 0.97888961 3.72693904 -1 3 C-1.33 2.34 -1.66 1.68 -2 1 C-1.34 0.67 -0.68 0.34 0 0 Z " fill="#7CE0E1" transform="translate(393,17)"/>
<path d="M0 0 C0.33 0 0.66 0 1 0 C1 2.64 1 5.28 1 8 C-0.65 8.66 -2.3 9.32 -4 10 C-4.33 9.01 -4.66 8.02 -5 7 C-3.35 7 -1.7 7 0 7 C0 4.69 0 2.38 0 0 Z " fill="#59D7E0" transform="translate(198,295)"/>
<path d="M0 0 C0.33 0.99 0.66 1.98 1 3 C0 4 0 4 -2.06640625 4.09765625 C-2.89011719 4.08605469 -3.71382813 4.07445313 -4.5625 4.0625 C-5.38878906 4.05347656 -6.21507812 4.04445313 -7.06640625 4.03515625 C-7.70449219 4.02355469 -8.34257812 4.01195313 -9 4 C-9 3.34 -9 2.68 -9 2 C-7.6078125 2.061875 -7.6078125 2.061875 -6.1875 2.125 C-2.84190281 2.27136339 -2.84190281 2.27136339 0 0 Z " fill="#D5F9F8" transform="translate(420,93)"/>
<path d="M0 0 C-2.90092502 1.93395001 -3.89674737 2.30131941 -7.1875 2.625 C-8.445625 2.74875 -9.70375 2.8725 -11 3 C-10 1 -10 1 -7.1875 -0.1875 C-4.14038924 -0.96421451 -2.86250637 -1.10096399 0 0 Z " fill="#D2F8F9" transform="translate(196,79)"/>
<path d="M0 0 C0.66 0.33 1.32 0.66 2 1 C0.7260411 3.03833424 -0.61061923 5.03852126 -2 7 C-2.66 7 -3.32 7 -4 7 C-3.43628586 3.73045798 -2.50037734 2.17424117 0 0 Z " fill="#64D7DB" transform="translate(254,56)"/>
<path d="M0 0 C1.32 0 2.64 0 4 0 C4 0.66 4 1.32 4 2 C2.04072937 3.7143618 0.04119788 5.38405168 -2 7 C-2.66 6.67 -3.32 6.34 -4 6 C-3.525625 5.566875 -3.05125 5.13375 -2.5625 4.6875 C-0.76313043 2.97690387 -0.76313043 2.97690387 0 0 Z " fill="#97EDED" transform="translate(276,52)"/>
<path d="M0 0 C3.2542015 2.83430453 4.5206753 4.68607774 5 9 C4.01 9.495 4.01 9.495 3 10 C3 8.35 3 6.7 3 5 C2.01 4.67 1.02 4.34 0 4 C0 2.68 0 1.36 0 0 Z " fill="#C3F1F6" transform="translate(403,26)"/>
<path d="M0 0 C1.32 0.33 2.64 0.66 4 1 C4 3.64 4 6.28 4 9 C2.00902154 6.01353231 1.05875074 3.40312738 0 0 Z " fill="#54D3DB" transform="translate(416,204)"/>
<path d="M0 0 C1.32 0.33 2.64 0.66 4 1 C3.67 1.66 3.34 2.32 3 3 C2.01 3 1.02 3 0 3 C-0.33 3.99 -0.66 4.98 -1 6 C-1.66 5.67 -2.32 5.34 -3 5 C-2.01 3.35 -1.02 1.7 0 0 Z " fill="#A5E7F3" transform="translate(169,76)"/>
<path d="M0 0 C1.32 0.66 2.64 1.32 4 2 C3.01 2 2.02 2 1 2 C1 3.32 1 4.64 1 6 C-0.32 5.67 -1.64 5.34 -3 5 C-2.01 3.35 -1.02 1.7 0 0 Z " fill="#D2FAFC" transform="translate(172,70)"/>
</svg>
